<?xml version="1.0" encoding="UTF-8"?>
<svg width="112px" height="114px" viewBox="0 0 112 114" version="1.1" xmlns="http://www.w3.org/2000/svg" xmlns:xlink="http://www.w3.org/1999/xlink">
    <!-- Generator: Sketch 53.2 (72643) - https://sketchapp.com -->
    <title>Group 19</title>
    <desc>Created with Sketch.</desc>
    <g id="Page-1" stroke="none" stroke-width="1" fill="none" fill-rule="evenodd">
        <g id="flourish" transform="translate(-353.000000, -1778.000000)">
            <g id="Group-6" transform="translate(301.000000, 1780.000000)">
                <g id="Group-19" transform="translate(54.000000, 0.000000)">
                    <g id="mapspot-active">
                        <path d="M109.155702,54.0487705 C109.155702,83.8991639 84.8555439,108.097361 54.879386,108.097361 C24.9032281,108.097361 0.603070175,83.8991639 0.603070175,54.0487705 C0.603070175,24.1981967 24.9032281,0 54.879386,0 C84.8555439,0 109.155702,24.1981967 109.155702,54.0487705 Z" id="Path" fill="#FFFFFF"></path>
                        <path d="M7.77842807,27.9398197 C11.4848877,21.4009508 16.5021228,15.7249508 22.4654737,11.2823754" id="Path" stroke="#4F7B38" stroke-width="5" stroke-linecap="round" stroke-linejoin="round"></path>
                        <path d="M84.6365088,98.8200328 C75.9524912,105.096885 65.3309298,108.788557 53.8602456,108.788557 C24.5149474,108.788557 0.725324561,84.6278689 0.725324561,54.8243607 C0.725324561,52.3769508 0.885885965,49.9675902 1.19666491,47.6067377" id="Path" stroke="#4F7B38" stroke-width="5" stroke-linecap="round" stroke-linejoin="round"></path>
                        <path d="M96.7110351,86.7396885 C95.4315614,88.5083443 94.0486491,90.1953115 92.5711754,91.7904918" id="Path" stroke="#4F7B38" stroke-width="5" stroke-linecap="round" stroke-linejoin="round"></path>
                        <path d="M53.8602456,0.860254098 C83.2061228,0.860254098 106.995263,25.0206721 106.995263,54.8243607 C106.995263,61.962459 105.630491,68.7766885 103.152018,75.0129672" id="Path" stroke="#4F7B38" stroke-width="5" stroke-linecap="round" stroke-linejoin="round"></path>
                    </g>
                    <g id="money_icon" transform="translate(24.000000, 39.000000)" stroke="#4F7B38" stroke-width="3">
                        <polygon id="Path" fill="#78C055" fill-rule="nonzero" points="0 29.1947667 0 30.6709571 1.47619048 30.6709571 59.410319 30.6709571 60.8865095 30.6709571 60.8865095 29.1947667 60.8865095 1.47619048 60.8865095 0 59.410319 0 1.47619048 0 0 0 0 1.47619048"></polygon>
                        <polyline id="Path" points="12.1333705 26.1392 5.58184524 20.4790429 5.58184524 8.91748952 12.1333705 4.5320081"></polyline>
                        <polyline id="Path" points="49.1611286 4.53183095 55.7614714 8.91769619 55.7614714 20.4788952 49.1611286 26.1390524"></polyline>
                        <path d="M37.2860619,15.3355524 C37.2860619,18.951481 34.2223762,21.8830476 30.4434762,21.8830476 C26.664281,21.8830476 23.6010381,18.951481 23.6010381,15.3355524 C23.6010381,11.7191367 26.664281,8.78793905 30.4434762,8.78793905 C34.2223762,8.78793905 37.2860619,11.7191367 37.2860619,15.3355524 Z" id="Path"></path>
                        <path d="M12.1965957,12.7164657 L20.179819,12.7164657" id="Path"></path>
                        <path d="M12.1965957,17.9546095 L20.179819,17.9546095" id="Path"></path>
                        <path d="M41.3917905,12.7164657 L49.3745857,12.7164657" id="Path"></path>
                        <path d="M41.3917905,17.9546095 L49.3745857,17.9546095" id="Path"></path>
                    </g>
                </g>
            </g>
        </g>
    </g>
</svg>