<?xml version="1.0" encoding="UTF-8"?>
<svg width="112px" height="114px" viewBox="0 0 112 114" version="1.1" xmlns="http://www.w3.org/2000/svg" xmlns:xlink="http://www.w3.org/1999/xlink">
    <!-- Generator: Sketch 53.2 (72643) - https://sketchapp.com -->
    <title>Group 24</title>
    <desc>Created with Sketch.</desc>
    <g id="Page-1" stroke="none" stroke-width="1" fill="none" fill-rule="evenodd">
        <g id="flourish" transform="translate(-973.000000, -1778.000000)">
            <g id="Group-6" transform="translate(301.000000, 1780.000000)">
                <g id="Group-24" transform="translate(672.000000, 0.000000)">
                    <g id="mapspot-active-copy-4" transform="translate(55.000000, 54.500000) scale(-1, 1) translate(-55.000000, -54.500000) ">
                        <path d="M109.155702,54.0487705 C109.155702,83.8991639 84.8555439,108.097361 54.879386,108.097361 C24.9032281,108.097361 0.603070175,83.8991639 0.603070175,54.0487705 C0.603070175,24.1981967 24.9032281,0 54.879386,0 C84.8555439,0 109.155702,24.1981967 109.155702,54.0487705 Z" id="Path" fill="#FFFFFF"></path>
                        <path d="M7.77842807,27.9398197 C11.4848877,21.4009508 16.5021228,15.7249508 22.4654737,11.2823754" id="Path" stroke="#9C8530" stroke-width="5" stroke-linecap="round" stroke-linejoin="round"></path>
                        <path d="M84.6365088,98.8200328 C75.9524912,105.096885 65.3309298,108.788557 53.8602456,108.788557 C24.5149474,108.788557 0.725324561,84.6278689 0.725324561,54.8243607 C0.725324561,52.3769508 0.885885965,49.9675902 1.19666491,47.6067377" id="Path" stroke="#9C8530" stroke-width="5" stroke-linecap="round" stroke-linejoin="round"></path>
                        <path d="M96.7110351,86.7396885 C95.4315614,88.5083443 94.0486491,90.1953115 92.5711754,91.7904918" id="Path" stroke="#9C8530" stroke-width="5" stroke-linecap="round" stroke-linejoin="round"></path>
                        <path d="M53.8602456,0.860254098 C83.2061228,0.860254098 106.995263,25.0206721 106.995263,54.8243607 C106.995263,61.962459 105.630491,68.7766885 103.152018,75.0129672" id="Path" stroke="#9C8530" stroke-width="5" stroke-linecap="round" stroke-linejoin="round"></path>
                    </g>
                    <path d="M81.9897009,51.1050334 C81.9897009,55.9751878 78.8270964,60.17528 74.2013779,61.5604024 C73.3122023,64.6769958 68.9341258,77.4894453 56.8013863,77.5900773 L56.7901204,77.5900773 C56.7451259,77.5900773 56.6888654,77.5900773 56.6438021,77.5788959 C56.5762758,77.5677146 50.6674902,76.7858392 47.5386833,77.0762811 L43.7795399,77.5788959 C43.588227,77.6012586 43.4081799,77.5900773 43.2280643,77.5229893 C42.7215832,77.3331792 30.6226422,72.6416536 28.1128361,50.0996675 C28.0903045,49.9656278 26.1882354,34.7067845 38.1746566,31.8248617 C40.391824,31.2887029 42.5977954,31.6795043 44.2184937,32.9083606 C45.7041394,34.0589475 47.279843,36.2259453 46.3906676,40.0685065 C46.3231413,40.5488949 45.9405156,42.6936665 44.1059728,43.9447491 C42.9354265,44.7489872 41.4610466,45.0170666 39.7165617,44.7378059 C39.6940301,45.9888885 40.1104533,48.424102 42.890432,51.607647 C43.2280631,51.9763585 45.4453003,54.4337984 46.9308774,57.0700032 C48.6079047,52.9815879 52.6483501,49.6975472 60.0540474,49.9209013 C60.6505177,44.4585451 65.3325653,40.1915012 70.993709,40.1915012 C77.0600799,40.1915023 81.9897009,45.0840194 81.9897009,51.1050334 Z" id="Path" stroke="#9C8530" stroke-width="3" fill="#F8E17C" fill-rule="nonzero"></path>
                </g>
            </g>
        </g>
    </g>
</svg>