<?xml version="1.0" encoding="UTF-8"?>
<svg width="112px" height="114px" viewBox="0 0 112 114" version="1.1" xmlns="http://www.w3.org/2000/svg" xmlns:xlink="http://www.w3.org/1999/xlink">
    <!-- Generator: Sketch 53.2 (72643) - https://sketchapp.com -->
    <title>Group 21</title>
    <desc>Created with Sketch.</desc>
    <g id="Page-1" stroke="none" stroke-width="1" fill="none" fill-rule="evenodd">
        <g id="flourish" transform="translate(-663.000000, -1777.000000)">
            <g id="Group-6" transform="translate(301.000000, 1780.000000)">
                <g id="Group-21" transform="translate(364.000000, 0.000000)">
                    <g id="mapspot-active-copy-3" transform="translate(55.000000, 54.500000) scale(1, -1) translate(-55.000000, -54.500000) ">
                        <path d="M109.155702,54.0487705 C109.155702,83.8991639 84.8555439,108.097361 54.879386,108.097361 C24.9032281,108.097361 0.603070175,83.8991639 0.603070175,54.0487705 C0.603070175,24.1981967 24.9032281,0 54.879386,0 C84.8555439,0 109.155702,24.1981967 109.155702,54.0487705 Z" id="Path" fill="#FFFFFF"></path>
                        <path d="M7.77842807,27.9398197 C11.4848877,21.4009508 16.5021228,15.7249508 22.4654737,11.2823754" id="Path" stroke="#C64644" stroke-width="5" stroke-linecap="round" stroke-linejoin="round"></path>
                        <path d="M84.6365088,98.8200328 C75.9524912,105.096885 65.3309298,108.788557 53.8602456,108.788557 C24.5149474,108.788557 0.725324561,84.6278689 0.725324561,54.8243607 C0.725324561,52.3769508 0.885885965,49.9675902 1.19666491,47.6067377" id="Path" stroke="#C64644" stroke-width="5" stroke-linecap="round" stroke-linejoin="round"></path>
                        <path d="M96.7110351,86.7396885 C95.4315614,88.5083443 94.0486491,90.1953115 92.5711754,91.7904918" id="Path" stroke="#C64644" stroke-width="5" stroke-linecap="round" stroke-linejoin="round"></path>
                        <path d="M53.8602456,0.860254098 C83.2061228,0.860254098 106.995263,25.0206721 106.995263,54.8243607 C106.995263,61.962459 105.630491,68.7766885 103.152018,75.0129672" id="Path" stroke="#C64644" stroke-width="5" stroke-linecap="round" stroke-linejoin="round"></path>
                    </g>
                    <g id="Group-4" transform="translate(21.000000, 21.000000)">
                        <path d="M54.7210526,56.0739899 C58.4157895,52.1055688 60.6052632,46.7687267 60.6052632,40.8845162 C60.6052632,34.7950425 58.1421053,29.2529373 54.1736842,25.2160952 C52.4631579,39.5160952 40.1473684,50.6003057 25.2315789,50.5318846 L18.0473684,50.5318846 C21.6736842,58.1266215 29.4052632,63.3266215 38.3,63.3266215 L62.6578947,63.2582004 L54.7210526,56.0739899 Z" id="Path" stroke="#C64644" stroke-width="3" fill="#F7B1B0" fill-rule="nonzero"></path>
                        <path d="M28.1210526,0.000305682399 C13.9578947,-0.0681153702 2.46315789,11.3582004 2.39473684,25.5213583 C2.39473684,32.2266215 4.99473684,38.3845162 9.16842105,42.9687267 L0,51.1792531 L27.9842105,51.2476741 C42.1473684,51.2476741 53.6421053,39.8213583 53.7105263,25.6582004 C53.7105263,11.5634636 42.2842105,0.000305682399 28.1210526,0.000305682399 Z" id="Path" stroke="#C64644" stroke-width="3" fill="#F7B1B0" fill-rule="nonzero"></path>
                        <path d="M34.8263158,15.4634636 C36.6052632,15.4634636 38.0421053,16.9003057 38.0421053,18.6792531 C38.0421053,20.4582004 36.6052632,21.8950425 34.8263158,21.8950425 C33.0473684,21.8950425 31.6105263,20.4582004 31.6105263,18.6792531 C31.6105263,16.9003057 33.0473684,15.4634636 34.8263158,15.4634636 Z M21.1421053,15.4634636 C22.9210526,15.4634636 24.3578947,16.9003057 24.3578947,18.6792531 C24.3578947,20.4582004 22.9210526,21.8950425 21.1421053,21.8950425 C19.3631579,21.8950425 17.9263158,20.4582004 17.9263158,18.6792531 C17.9263158,16.9003057 19.3631579,15.4634636 21.1421053,15.4634636 Z M28.2578947,37.1529373 C28.2578947,37.1529373 27.9842105,37.1529373 27.9842105,37.1529373 C22.4421053,37.0160952 17.9947368,33.1845162 17.9947368,28.4634636 C17.9947368,28.2582004 17.9947368,27.7792531 18.4052632,27.3687267 C18.7473684,27.0266215 19.2947368,26.8213583 20.0473684,26.8213583 C20.0473684,26.8213583 36.4684211,26.8213583 36.5368421,26.8213583 C36.8105263,26.8213583 37.4263158,26.8897794 37.9052632,27.3687267 C38.1789474,27.6424109 38.3842105,28.0529373 38.3157895,28.4634636 C38.2473684,33.1845162 33.8,37.0845162 28.2578947,37.1529373 Z" id="Combined-Shape" fill="#C64644"></path>
                    </g>
                </g>
            </g>
        </g>
    </g>
</svg>