<?xml version="1.0" encoding="UTF-8"?>
<svg width="113px" height="113px" viewBox="0 0 113 113" version="1.1" xmlns="http://www.w3.org/2000/svg" xmlns:xlink="http://www.w3.org/1999/xlink">
    <defs>
        <style>
            @import url("https://fonts.googleapis.com/css?family=Fredoka+One|Nunito");
        </style>
    </defs>
    <!-- Generator: Sketch 53.2 (72643) - https://sketchapp.com -->
    <title>Group 18</title>
    <desc>Created with Sketch.</desc>
    <g id="Page-1" stroke="none" stroke-width="1" fill="none" fill-rule="evenodd">
        <g id="flourish" transform="translate(-1073.000000, -1012.000000)">
            <g id="Group-18" transform="translate(1052.321394, 991.000000)">
                <g id="mapspot-active-copy-2" transform="translate(78.000000, 77.616978) rotate(40.000000) translate(-78.000000, -77.616978) translate(23.000000, 23.116978)">
                    <path d="M109.155702,54.0487705 C109.155702,83.8991639 84.8555439,108.097361 54.879386,108.097361 C24.9032281,108.097361 0.603070175,83.8991639 0.603070175,54.0487705 C0.603070175,24.1981967 24.9032281,0 54.879386,0 C84.8555439,0 109.155702,24.1981967 109.155702,54.0487705 Z" id="Path" fill="#FFFFFF"></path>
                    <path d="M7.77842807,27.9398197 C11.4848877,21.4009508 16.5021228,15.7249508 22.4654737,11.2823754" id="Path" stroke="#4F7B38" stroke-width="5" stroke-linecap="round" stroke-linejoin="round"></path>
                    <path d="M84.6365088,98.8200328 C75.9524912,105.096885 65.3309298,108.788557 53.8602456,108.788557 C24.5149474,108.788557 0.725324561,84.6278689 0.725324561,54.8243607 C0.725324561,52.3769508 0.885885965,49.9675902 1.19666491,47.6067377" id="Path" stroke="#4F7B38" stroke-width="5" stroke-linecap="round" stroke-linejoin="round"></path>
                    <path d="M96.7110351,86.7396885 C95.4315614,88.5083443 94.0486491,90.1953115 92.5711754,91.7904918" id="Path" stroke="#4F7B38" stroke-width="5" stroke-linecap="round" stroke-linejoin="round"></path>
                    <path d="M53.8602456,0.860254098 C83.2061228,0.860254098 106.995263,25.0206721 106.995263,54.8243607 C106.995263,61.962459 105.630491,68.7766885 103.152018,75.0129672" id="Path" stroke="#4F7B38" stroke-width="5" stroke-linecap="round" stroke-linejoin="round"></path>
                </g>
                <g id="Group-5" transform="translate(50.649621, 51.426471)">
                    <path d="M42.2541183,12.6615571 L44.8039589,12.6615571 L44.8039589,15.0944925 C44.8039589,18.5468002 43.3548418,18.6728094 42.2541183,19.2795525 L42.2541183,12.6615571 Z M8.25433082,15.1616556 L8.25433082,12.7286417 L10.8042511,12.7286417 L10.8042511,19.2795525 C9.70352769,18.6728094 8.25433082,18.6138848 8.25433082,15.1616556 Z M48.416273,5.51590787 L42.2541183,5.51590787 L42.2541183,1.57352941 L10.8042511,1.57352941 L10.8042511,5.58303172 L4.6416741,5.58303172 C2.64650629,5.58303172 1.02898551,7.18277618 1.02898551,9.15566018 L1.02898551,15.1616556 C1.02898551,22.8293094 5.55621566,26.5856556 11.335448,26.5856556 C11.6888621,26.5856556 12.0372558,26.562431 12.3807886,26.5184925 C14.4207089,30.6671463 18.2719261,33.7804217 22.9166714,34.8607586 L22.9166714,45.2175248 L11.4415918,45.2175248 L11.4415918,52.5735294 L42.8914589,52.5735294 L42.8914589,45.2175248 L31.4164589,45.2175248 L31.4164589,34.5083094 C35.5102449,33.1848986 38.8658855,30.2482402 40.7097746,26.4543894 C41.0427089,26.4956602 41.3805043,26.5181786 41.7229214,26.5181786 C47.502098,26.5181786 52.0289855,22.7621463 52.0289855,15.0944925 L52.0289855,9.0884971 C52.0289855,7.11527572 50.4114886,5.51590787 48.416273,5.51590787 Z" id="Shape" fill="#F8D955"></path>
                    <path d="M42.1390676,11.5880206 C41.4837661,11.5880206 40.9525004,12.1113956 40.9525004,12.7571382 C40.9525004,13.4028029 41.4837661,13.9262559 42.1390676,13.9262559 L42.1390676,11.5880206 Z M44.6702527,12.7571382 L45.8568198,12.7571382 C45.8568198,12.1113956 45.3256333,11.5880206 44.6702527,11.5880206 L44.6702527,12.7571382 Z M41.55939,18.3110706 C40.9876228,18.6264985 40.7836124,19.3389588 41.1036691,19.9023176 C41.4238049,20.4657544 42.1468989,20.6667647 42.7186661,20.3513368 L41.55939,18.3110706 Z M10.3396213,20.3513368 C10.9114676,20.6667647 11.6345616,20.4657544 11.9546183,19.9023176 C12.2747542,19.3389588 12.0707437,18.6264985 11.4988974,18.3110706 L10.3396213,20.3513368 Z M8.38803476,12.8237779 L8.38803476,11.6546603 C7.73273327,11.6546603 7.20149133,12.1781132 7.20149133,12.8237779 L8.38803476,12.8237779 Z M10.9192989,13.9928956 C11.5746004,13.9928956 12.1058661,13.4694426 12.1058661,12.8237779 C12.1058661,12.1781132 11.5746004,11.6546603 10.9192989,11.6546603 L10.9192989,13.9928956 Z M2.40211984,15.2406559 C2.40211984,14.5949912 1.8708779,14.0715382 1.21555267,14.0715382 C0.560227448,14.0715382 0.0289855072,14.5949912 0.0289855072,15.2406559 L2.40211984,15.2406559 Z M12.4843019,26.5221735 L13.5522915,26.01275 C13.3297706,25.5599118 12.8381363,25.2981074 12.3317094,25.3627985 L12.4843019,26.5221735 Z M22.9431004,34.8091132 L24.1296676,34.8091132 C24.1296676,34.2669544 23.75139,33.7959559 23.2159318,33.6713279 L22.9431004,34.8091132 Z M22.9431004,45.0971926 L22.9431004,46.2663103 C23.5984019,46.2663103 24.1296676,45.7428574 24.1296676,45.0971926 L22.9431004,45.0971926 Z M11.5519766,45.0971926 L11.5519766,43.928075 C10.8966751,43.928075 10.3654094,44.4515279 10.3654094,45.0971926 L11.5519766,45.0971926 Z M11.5519766,52.4044118 L10.3654094,52.4044118 C10.3654094,53.0500765 10.8966751,53.5735294 11.5519766,53.5735294 L11.5519766,52.4044118 Z M16.2926288,53.5735294 C16.9480094,53.5735294 17.479196,53.0500765 17.479196,52.4044118 C17.479196,51.7587471 16.9480094,51.2352941 16.2926288,51.2352941 L16.2926288,53.5735294 Z M27.0254452,51.2352941 C26.3701437,51.2352941 25.838878,51.7587471 25.838878,52.4044118 C25.838878,53.0500765 26.3701437,53.5735294 27.0254452,53.5735294 L27.0254452,51.2352941 Z M42.7717452,52.4044118 L42.7717452,53.5735294 C43.4271258,53.5735294 43.9583124,53.0500765 43.9583124,52.4044118 L42.7717452,52.4044118 Z M42.7717452,45.0971926 L43.9583124,45.0971926 C43.9583124,44.4515279 43.4271258,43.928075 42.7717452,43.928075 L42.7717452,45.0971926 Z M39.6439542,43.928075 C38.9886527,43.928075 38.457387,44.4515279 38.457387,45.0971926 C38.457387,45.7428574 38.9886527,46.2663103 39.6439542,46.2663103 L39.6439542,43.928075 Z M33.5558363,46.2663103 C34.2111377,46.2663103 34.7424034,45.7428574 34.7424034,45.0971926 C34.7424034,44.4515279 34.2111377,43.928075 33.5558363,43.928075 L33.5558363,46.2663103 Z M31.3807004,45.0971926 L30.1941333,45.0971926 C30.1941333,45.7428574 30.7253198,46.2663103 31.3807004,46.2663103 L31.3807004,45.0971926 Z M31.3807004,34.4590015 L31.0104915,33.3481838 C30.5233661,33.5057809 30.1941333,33.9537868 30.1941333,34.4590015 L31.3807004,34.4590015 Z M36.0212064,32.0372912 L36.7450124,32.9636221 L36.7451706,32.9635441 L36.0212064,32.0372912 Z M40.6060228,26.4584956 L40.7541855,25.298575 C40.2472049,25.2356765 39.7562825,25.4996632 39.5356601,25.9538265 L40.6060228,26.4584956 Z M42.1390676,5.65887941 L40.9525004,5.65887941 C40.9525004,6.30455971 41.4837661,6.82799706 42.1390676,6.82799706 L42.1390676,5.65887941 Z M42.1390676,1.74264706 L43.3256348,1.74264706 C43.3256348,1.09695897 42.7943691,0.573529412 42.1390676,0.573529412 L42.1390676,1.74264706 Z M10.9192989,1.74264706 L10.9192989,0.573529412 C10.2639974,0.573529412 9.73273178,1.09695897 9.73273178,1.74264706 L10.9192989,1.74264706 Z M9.73273178,5.72555809 C9.73273178,6.37123838 10.2639974,6.89467574 10.9192989,6.89467574 C11.5746004,6.89467574 12.1058661,6.37123838 12.1058661,5.72555809 L9.73273178,5.72555809 Z M4.80180954,6.89467574 C5.45712685,6.89467574 5.9883767,6.37123838 5.9883767,5.72555809 C5.9883767,5.07987 5.45712685,4.55644044 4.80180954,4.55644044 L4.80180954,6.89467574 Z M0.0289855072,9.27449265 C0.0289855072,9.92015735 0.560227448,10.4436103 1.21555267,10.4436103 C1.8708779,10.4436103 2.40211984,9.92015735 2.40211984,9.27449265 L0.0289855072,9.27449265 Z M42.1390676,13.9262559 L44.6702527,13.9262559 L44.6702527,11.5880206 L42.1390676,11.5880206 L42.1390676,13.9262559 Z M43.4836855,12.7571382 L43.4836855,15.1739382 L45.8568198,15.1739382 L45.8568198,12.7571382 L43.4836855,12.7571382 Z M43.4836855,15.1739382 C43.4836855,16.7463235 43.1518422,17.2937824 42.9382601,17.5240985 C42.8182586,17.6535588 42.6674064,17.7582338 42.4415631,17.8757691 C42.3232228,17.9372647 42.2030631,17.9931485 42.0496795,18.0654779 C41.9058676,18.1332088 41.7328661,18.2154368 41.55939,18.3110706 L42.7186661,20.3513368 C42.8184169,20.2963103 42.9294004,20.2427647 43.0734497,20.1749559 C43.2078482,20.1115897 43.3793467,20.0320118 43.5495004,19.9435485 C43.9006452,19.7608544 44.3142825,19.5069221 44.6905034,19.1010044 C45.4694452,18.2607985 45.8568198,17.0309647 45.8568198,15.1739382 L43.4836855,15.1739382 Z M11.4988974,18.3110706 C11.3209915,18.2129426 11.1448258,18.1306368 10.9974542,18.0630618 C10.8389288,17.9904206 10.7200348,17.9374206 10.5984512,17.8768603 C10.3689691,17.7624426 10.2223094,17.6641588 10.1072915,17.5439735 C9.90763178,17.3352471 9.57460193,16.8157691 9.57460193,15.2406559 L7.20149133,15.2406559 C7.20149133,17.0948765 7.58781387,18.3193324 8.38051984,19.147925 C8.76180342,19.5463603 9.17963327,19.7900044 9.52713924,19.9632676 C9.69412879,20.0465088 9.86689297,20.1237485 9.99622879,20.1830618 C10.1366392,20.2474412 10.2443795,20.2988044 10.3396213,20.3513368 L11.4988974,18.3110706 Z M9.57460193,15.2406559 L9.57460193,12.8237779 L7.20149133,12.8237779 L7.20149133,15.2406559 L9.57460193,15.2406559 Z M8.38803476,13.9928956 L10.9192989,13.9928956 L10.9192989,11.6546603 L8.38803476,11.6546603 L8.38803476,13.9928956 Z M0.0289855072,15.2406559 C0.0289855072,19.2760603 1.22368461,22.4301059 3.32465998,24.5816721 C5.42648178,26.7340956 8.31383476,27.7580088 11.4466094,27.7580088 L11.4466094,25.4197735 C8.84241088,25.4197735 6.61426715,24.5780088 5.03478804,22.9604956 C3.45447834,21.342125 2.40211984,18.8220529 2.40211984,15.2406559 L0.0289855072,15.2406559 Z M11.4466094,27.7580088 C11.8504377,27.7580088 12.2473049,27.7314309 12.6369736,27.6816265 L12.3317094,25.3627985 C12.0392601,25.4002103 11.7443586,25.4197735 11.4466094,25.4197735 L11.4466094,27.7580088 Z M11.4163124,27.031675 C13.5938213,31.4630985 17.7051183,34.7912647 22.6702691,35.9468985 L23.2159318,33.6713279 C18.9595571,32.6806176 15.4247736,29.8235279 13.5522915,26.01275 L11.4163124,27.031675 Z M21.7565333,34.8091132 L21.7565333,45.0971926 L24.1296676,45.0971926 L24.1296676,34.8091132 L21.7565333,34.8091132 Z M22.9431004,43.928075 L11.5519766,43.928075 L11.5519766,46.2663103 L22.9431004,46.2663103 L22.9431004,43.928075 Z M10.3654094,45.0971926 L10.3654094,52.4044118 L12.7385437,52.4044118 L12.7385437,45.0971926 L10.3654094,45.0971926 Z M11.5519766,53.5735294 L16.2926288,53.5735294 L16.2926288,51.2352941 L11.5519766,51.2352941 L11.5519766,53.5735294 Z M27.0254452,53.5735294 L42.7717452,53.5735294 L42.7717452,51.2352941 L27.0254452,51.2352941 L27.0254452,53.5735294 Z M43.9583124,52.4044118 L43.9583124,45.0971926 L41.585178,45.0971926 L41.585178,52.4044118 L43.9583124,52.4044118 Z M42.7717452,43.928075 L39.6439542,43.928075 L39.6439542,46.2663103 L42.7717452,46.2663103 L42.7717452,43.928075 Z M33.5558363,43.928075 L31.3807004,43.928075 L31.3807004,46.2663103 L33.5558363,46.2663103 L33.5558363,43.928075 Z M32.5672676,45.0971926 L32.5672676,34.4590015 L30.1941333,34.4590015 L30.1941333,45.0971926 L32.5672676,45.0971926 Z M31.7508303,35.5697412 C33.5733183,34.9801162 35.2576109,34.0919765 36.7450124,32.9636221 L35.2973213,31.1108824 C34.0190721,32.0805485 32.5732795,32.8426574 31.0104915,33.3481838 L31.7508303,35.5697412 Z M36.7451706,32.9635441 C38.8289407,31.3823515 40.5271557,29.3293029 41.6763064,26.9631647 L39.5356601,25.9538265 C38.5485154,27.9863765 37.0888004,29.7515103 35.2971631,31.1109603 L36.7451706,32.9635441 Z M40.4578601,27.6184941 C40.8340019,27.6651029 41.2189243,27.6909794 41.6117571,27.6909794 L41.6117571,25.3527441 C41.3247661,25.3527441 41.0389616,25.3338824 40.7541855,25.298575 L40.4578601,27.6184941 Z M41.6117571,27.6909794 C44.7444527,27.6909794 47.6317661,26.6671441 49.733493,24.5147985 C51.8344288,22.3633103 53.0289855,19.2093426 53.0289855,15.1739382 L50.6558512,15.1739382 C50.6558512,18.7554132 49.6036034,21.2753294 48.0233333,22.8936221 C46.4440124,24.5109794 44.2159557,25.3527441 41.6117571,25.3527441 L41.6117571,27.6909794 Z M53.0289855,15.1739382 L53.0289855,9.207775 L50.6558512,9.207775 L50.6558512,15.1739382 L53.0289855,15.1739382 Z M53.0289855,9.207775 C53.0289855,6.60671426 50.8968825,4.48976176 48.2561377,4.48976176 L48.2561377,6.82799706 C49.5766288,6.82799706 50.6558512,7.88857382 50.6558512,9.207775 L53.0289855,9.207775 Z M48.2561377,4.48976176 L42.1390676,4.48976176 L42.1390676,6.82799706 L48.2561377,6.82799706 L48.2561377,4.48976176 Z M43.3256348,5.65887941 L43.3256348,1.74264706 L40.9525004,1.74264706 L40.9525004,5.65887941 L43.3256348,5.65887941 Z M42.1390676,0.573529412 L10.9192989,0.573529412 L10.9192989,2.91176471 L42.1390676,2.91176471 L42.1390676,0.573529412 Z M9.73273178,1.74264706 L9.73273178,5.72555809 L12.1058661,5.72555809 L12.1058661,1.74264706 L9.73273178,1.74264706 Z M4.80180954,4.55644044 C2.1610173,4.55644044 0.0289855072,6.67385279 0.0289855072,9.27449265 L2.40211984,9.27449265 C2.40211984,7.95554088 3.48146088,6.89467574 4.80180954,6.89467574 L4.80180954,4.55644044 Z" id="Shape" fill="#9C8530" fill-rule="nonzero"></path>
                </g>
                <circle id="Oval-Copy-2" fill="#4FB0BB" cx="113.678606" cy="39" r="18"></circle>
                <text id="3" font-family="Fredoka One" font-size="20" font-weight="normal" line-spacing="24" letter-spacing="-0.06000001" fill="#FFFFFF">
                    <tspan x="108.128606" y="46">3</tspan>
                </text>
            </g>
        </g>
    </g>
</svg>
