<?xml version="1.0" encoding="UTF-8"?>
<svg width="117px" height="117px" viewBox="0 0 117 117" version="1.1" xmlns="http://www.w3.org/2000/svg" xmlns:xlink="http://www.w3.org/1999/xlink">
    <defs>
        <style>
            @import url("https://fonts.googleapis.com/css?family=Fredoka+One|Nunito");
        </style>
    </defs>
    <!-- Generator: Sketch 53.2 (72643) - https://sketchapp.com -->
    <title>Group 14</title>
    <desc>Created with Sketch.</desc>
    <g id="Page-1" stroke="none" stroke-width="1" fill="none" fill-rule="evenodd">
        <g id="flourish" transform="translate(-253.000000, -961.000000)">
            <g id="Group-14" transform="translate(255.000000, 961.000000)">
                <g id="mapspot-active" transform="translate(0.000000, 5.000000)">
                    <path d="M109.155702,54.0487705 C109.155702,83.8991639 84.8555439,108.097361 54.879386,108.097361 C24.9032281,108.097361 0.603070175,83.8991639 0.603070175,54.0487705 C0.603070175,24.1981967 24.9032281,0 54.879386,0 C84.8555439,0 109.155702,24.1981967 109.155702,54.0487705 Z" id="Path" fill="#FFFFFF"></path>
                    <path d="M7.77842807,27.9398197 C11.4848877,21.4009508 16.5021228,15.7249508 22.4654737,11.2823754" id="Path" stroke="#4F7B38" stroke-width="5" stroke-linecap="round" stroke-linejoin="round"></path>
                    <path d="M84.6365088,98.8200328 C75.9524912,105.096885 65.3309298,108.788557 53.8602456,108.788557 C24.5149474,108.788557 0.725324561,84.6278689 0.725324561,54.8243607 C0.725324561,52.3769508 0.885885965,49.9675902 1.19666491,47.6067377" id="Path" stroke="#4F7B38" stroke-width="5" stroke-linecap="round" stroke-linejoin="round"></path>
                    <path d="M96.7110351,86.7396885 C95.4315614,88.5083443 94.0486491,90.1953115 92.5711754,91.7904918" id="Path" stroke="#4F7B38" stroke-width="5" stroke-linecap="round" stroke-linejoin="round"></path>
                    <path d="M53.8602456,0.860254098 C83.2061228,0.860254098 106.995263,25.0206721 106.995263,54.8243607 C106.995263,61.962459 105.630491,68.7766885 103.152018,75.0129672" id="Path" stroke="#4F7B38" stroke-width="5" stroke-linecap="round" stroke-linejoin="round"></path>
                </g>
                <circle id="Oval" fill="#4FB0BB" cx="97" cy="18" r="18"></circle>
                <text id="1" font-family="Fredoka One" font-size="20" font-weight="normal" line-spacing="24" letter-spacing="-0.06000001" fill="#FFFFFF">
                    <tspan x="92.46" y="25">1</tspan>
                </text>
                <g id="piggy" transform="translate(23.000000, 26.000000)">
                    <path d="M57.8871,31.1207 C56.5871,18.7471 44.4199,9.0482 31.9218,9.0517 C27.7672,9.0529 23.6499,10.1271 19.9556,12.014 L11.0945,6.11235 C10.5636,5.75868 9.89629,6.30003 10.1207,6.902 L13.6648,16.4064 C10.3156,19.5088 7.78746,23.414 6.60108,27.7719 L3.1295,28.1949 C2.48485,28.2735 1.99981,28.8276 2,29.4853 L2.00315,40.6056 C2.00324,41.2632 2.48865,41.8172 3.1333,41.8953 L7.9428,42.4785 C10.0683,46.9914 13.6586,50.8239 17.9998,53.4954 L18.587,60.8061 C18.6412,61.4808 19.1976,62.0002 19.8657,62 L26.806,61.998 C27.5144,61.9978 28.0885,61.416 28.0883,60.6984 L28.0875,57.2529 C29.359,57.4517 30.6452,57.5578 31.9353,57.5574 C33.8077,57.5569 35.671,57.3316 37.493,56.9193 L37.4941,60.6957 C37.4943,61.4132 38.0688,61.9948 38.7771,61.9947 L45.7174,61.9927 C46.3856,61.9924 46.9417,61.4727 46.9955,60.798 L47.6757,52.2712 C53.7041,47.8796 57.9013,41.1446 58,33.5742" id="Path" fill="#F7B1B0"></path>
                    <path d="M56.5082,31.2778 C56.595,32.1017 57.3332,32.6992 58.1571,32.6125 C58.9809,32.5257 59.5785,31.7875 59.4918,30.9636 L56.5082,31.2778 Z M58.4759,26.2399 C58.2175,25.4528 57.37,25.0242 56.5829,25.2825 C55.7958,25.5409 55.3672,26.3885 55.6255,27.1756 L58.4759,26.2399 Z M53.0654,21.9381 C53.5239,22.6281 54.4549,22.8158 55.1449,22.3573 C55.8349,21.8988 56.0226,20.9678 55.5641,20.2778 L53.0654,21.9381 Z M54.3304,18.5718 C53.8189,17.9201 52.876,17.8064 52.2243,18.3179 C51.5726,18.8293 51.4589,19.7722 51.9703,20.4239 L54.3304,18.5718 Z M48.2863,16.6367 C48.9221,17.1678 49.868,17.0829 50.3991,16.447 C50.9301,15.8112 50.8452,14.8653 50.2094,14.3342 L48.2863,16.6367 Z M47.0641,13.8362 L47.9088,12.5966 L47.9087,12.5966 L47.0641,13.8362 Z M31.9818,7.55168 C31.1534,7.55191 30.482,8.2237 30.4822,9.0521 C30.4824,9.8805 31.1542,10.5519 31.9826,10.5517 L31.9818,7.55168 Z M19.1615,13.2632 C19.8514,13.7217 20.7825,13.5342 21.2411,12.8443 C21.6996,12.1543 21.5121,11.2233 20.8222,10.7647 L19.1615,13.2632 Z M11.1129,6.1123 L11.9432,4.86308 L11.9432,4.86308 L11.1129,6.1123 Z M10.1372,6.90204 L11.5424,6.37705 L11.5423,6.37687 L10.1372,6.90204 Z M13.6883,16.4064 L14.7065,17.5079 C15.1537,17.0945 15.3066,16.4518 15.0934,15.8814 L13.6883,16.4064 Z M9.64961,18.5744 C9.13814,19.2261 9.25181,20.169 9.9035,20.6805 C10.5552,21.192 11.4981,21.0783 12.0096,20.4266 L9.64961,18.5744 Z M6.79145,29.261 C7.61382,29.161 8.19941,28.4132 8.0994,27.5909 C7.99939,26.7685 7.25166,26.1829 6.42929,26.2829 L6.79145,29.261 Z M3.13178,28.195 L3.31283,29.684 L3.31285,29.684 L3.13178,28.195 Z M2,29.4853 L0.5,29.4857 L0.5,29.4857 L2,29.4853 Z M2.00316,40.6056 L3.50316,40.6051 L3.50316,40.6051 L2.00316,40.6056 Z M3.13558,41.8953 L3.31582,40.4061 L3.31579,40.4061 L3.13558,41.8953 Z M7.9548,42.4786 L9.31132,41.8384 C9.09122,41.372 8.64699,41.0514 8.13504,40.9894 L7.9548,42.4786 Z M10.6943,49.2914 C11.2436,49.9116 12.1916,49.969 12.8118,49.4198 C13.4319,48.8705 13.4894,47.9225 12.9401,47.3023 L10.6943,49.2914 Z M19.5274,53.3751 C19.4609,52.5493 18.7376,51.9338 17.9119,52.0002 C17.0861,52.0667 16.4706,52.79 16.537,53.6157 L19.5274,53.3751 Z M18.6205,60.8061 L17.1253,60.9264 L17.1253,60.9264 L18.6205,60.8061 Z M19.9018,62 L19.9022,63.5 L19.9022,63.5 L19.9018,62 Z M26.8562,61.998 L26.8566,63.498 L26.8568,63.498 L26.8562,61.998 Z M28.141,60.6984 L26.641,60.6987 L26.641,60.699 L28.141,60.6984 Z M28.1401,57.2529 L28.3713,55.7709 C27.9383,55.7033 27.4974,55.8285 27.1645,56.1136 C26.8316,56.3986 26.64,56.815 26.6401,57.2533 L28.1401,57.2529 Z M31.9958,57.5574 L31.9961,59.0574 L31.9962,59.0574 L31.9958,57.5574 Z M37.5648,56.9192 L39.0648,56.9189 C39.0647,56.4631 38.8573,56.032 38.5013,55.7475 C38.1452,55.4629 37.6791,55.3557 37.2344,55.4561 L37.5648,56.9192 Z M37.5657,60.6957 L36.0657,60.696 L36.0657,60.696 L37.5657,60.6957 Z M38.8513,61.9946 L38.8517,63.4946 L38.8517,63.4946 L38.8513,61.9946 Z M45.8057,61.9926 L45.8053,60.4926 L45.8053,60.4926 L45.8057,61.9926 Z M47.0864,60.7979 L48.5816,60.9175 L48.5816,60.9174 L47.0864,60.7979 Z M47.7679,52.2712 L46.8858,51.0579 C46.5315,51.3155 46.3075,51.7151 46.2726,52.1517 L47.7679,52.2712 Z M55.5613,46.3315 C56.02,45.6417 55.8326,44.7106 55.1427,44.2519 C54.4529,43.7932 53.5218,43.9806 53.0631,44.6704 L55.5613,46.3315 Z M59.4918,30.9636 C59.3207,29.3392 58.9748,27.7598 58.4759,26.2399 L55.6255,27.1756 C56.0604,28.5002 56.3602,29.8715 56.5082,31.2778 L59.4918,30.9636 Z M55.5641,20.2778 C55.176,19.6936 54.7642,19.1246 54.3304,18.5718 L51.9703,20.4239 C52.3561,20.9156 52.7216,21.4206 53.0654,21.9381 L55.5641,20.2778 Z M50.2094,14.3342 C49.4726,13.7188 48.7042,13.1386 47.9088,12.5966 L46.2194,15.0757 C46.9346,15.5631 47.625,16.0844 48.2863,16.6367 L50.2094,14.3342 Z M47.9087,12.5966 C43.2687,9.4349 37.6737,7.55008 31.9818,7.55167898 L31.9826,10.5517 C37.0202,10.5503 42.0333,12.2234 46.2195,15.0758 L47.9087,12.5966 Z M20.8222,10.7647 L11.9432,4.86308 L10.2826,7.36152 L19.1615,13.2632 L20.8222,10.7647 Z M11.9432,4.86308 C10.1483,3.67004 8.01971,5.52109 8.73217,7.42722 L11.5423,6.37687 C11.8047,7.07906 11.0136,7.84741 10.2826,7.36153 L11.9432,4.86308 Z M8.7321,7.42704 L12.2832,16.9314 L15.0934,15.8814 L11.5424,6.37705 L8.7321,7.42704 Z M12.6701,15.3049 C11.5767,16.3157 10.5643,17.409 9.64961,18.5744 L12.0096,20.4266 C12.8232,19.3899 13.7269,18.4135 14.7065,17.5079 L12.6701,15.3049 Z M6.42929,26.2829 L2.9507,26.7059 L3.31285,29.684 L6.79145,29.261 L6.42929,26.2829 Z M2.95072,26.7059 C1.53929,26.8775 0.499604,28.082 0.5,29.4857 L3.5,29.4849 C3.50002,29.573 3.43237,29.6694 3.31283,29.684 L2.95072,26.7059 Z M0.5,29.4857 L0.503156,40.606 L3.50316,40.6051 L3.5,29.4849 L0.5,29.4857 Z M0.503156,40.606 C0.503552,42.0093 1.54367,43.2136 2.95538,43.3844 L3.31579,40.4061 C3.4356,40.4206 3.50313,40.517 3.50316,40.6051 L0.503156,40.606 Z M2.95535,43.3844 L7.77456,43.9677 L8.13504,40.9894 L3.31582,40.4061 L2.95535,43.3844 Z M6.59829,43.1188 C7.65537,45.3586 9.04782,47.4324 10.6943,49.2914 L12.9401,47.3023 C11.4704,45.643 10.2397,43.8055 9.31132,41.8384 L6.59829,43.1188 Z M16.537,53.6157 L17.1253,60.9264 L20.1157,60.6858 L19.5274,53.3751 L16.537,53.6157 Z M17.1253,60.9264 C17.2413,62.367 18.4373,63.5004 19.9022,63.5 L19.9014,60.5 C20.0273,60.5 20.1083,60.5946 20.1157,60.6858 L17.1253,60.9264 Z M19.9022,63.5 L26.8566,63.498 L26.8558,60.498 L19.9014,60.5 L19.9022,63.5 Z M26.8568,63.498 C28.4102,63.4974 29.6416,62.2285 29.641,60.6978 L26.641,60.699 C26.6409,60.6033 26.7218,60.4981 26.8556,60.498 L26.8568,63.498 Z M29.641,60.698 L29.6401,57.2526 L26.6401,57.2533 L26.641,60.6987 L29.641,60.698 Z M27.9089,58.735 C29.2549,58.945 30.6212,59.0577 31.9961,59.0574006 L31.9954,56.0574 C30.7849,56.0577 29.5737,55.9584 28.3713,55.7709 L27.9089,58.735 Z M31.9962,59.0574 C33.9921,59.0568 35.97,58.8171 37.8952,58.3824 L37.2344,55.4561 C35.508,55.8459 33.7517,56.0569 31.9953,56.0574 L31.9962,59.0574 Z M36.0648,56.9196 L36.0657,60.696 L39.0657,60.6953 L39.0648,56.9189 L36.0648,56.9196 Z M36.0657,60.696 C36.0661,62.2266 37.2983,63.495 38.8517,63.4946 L38.8509,60.4946 C38.9849,60.4945 39.0657,60.5996 39.0657,60.6953 L36.0657,60.696 Z M38.8517,63.4946 L45.8061,63.4926 L45.8053,60.4926 L38.8509,60.4946 L38.8517,63.4946 Z M45.8061,63.4926 C47.2711,63.4922 48.4665,62.358 48.5816,60.9175 L45.5911,60.6784 C45.5984,60.5873 45.6793,60.4926 45.8053,60.4926 L45.8061,63.4926 Z M48.5816,60.9174 L49.2631,52.3907 L46.2726,52.1517 L45.5911,60.6784 L48.5816,60.9174 Z M48.6499,53.4844 C51.3582,51.5154 53.7253,49.0927 55.5613,46.3315 L53.0631,44.6704 C51.4359,47.1177 49.323,49.286 46.8858,51.0579 L48.6499,53.4844 Z" id="Shape" fill="#C64644" fill-rule="nonzero"></path>
                    <path d="M26,30 C26,32.2091 24.4329,34 22.5,34 C20.567,34 19,32.2091 19,30 C19,27.7909 20.567,26 22.5,26 C24.4329,26 26,27.7909 26,30 Z" id="Path" stroke="#C64644" stroke-width="3" stroke-linecap="round" stroke-linejoin="round"></path>
                    <polyline id="Path" stroke="#C64644" stroke-width="3" stroke-linecap="round" stroke-linejoin="round" points="60 37 70 37 70 31"></polyline>
                    <path d="M27,16.4639 C28.5685,16.1606 30.2063,16 31.8907,16 C34.3874,16 36.7816,16.3529 39,17" id="Path" stroke="#C64644" stroke-width="3" stroke-linecap="round" stroke-linejoin="round"></path>
                    <path d="M32,0 C28.1341,0 25,3.178 25,7.09833 C25,8.771 25.572,10.3074 26.5265,11.5205 C27.9307,11.2211 29.3867,11.0636 30.8789,11.0636 C33.0301,11.0636 35.1056,11.3919 37.0603,12 C38.2611,10.7257 39,9 39,7.09833 C39,3.178 35.866,0 32,0 Z" id="Path" fill="#F8D331"></path>
                    <path d="M37.0603,12 C38.2611,10.7256 39,9 39,7.09833 C39,3.178 35.866,0 32,0 C28.1341,0 25,3.178 25,7.09833 C25,8.771 25.572,10.3073 26.5264,11.5205" id="Path" stroke="#9C8530" stroke-width="3" stroke-linecap="round" stroke-linejoin="round"></path>
                </g>
            </g>
        </g>
    </g>
</svg>
