<?xml version="1.0" encoding="UTF-8"?>
<svg width="115px" height="117px" viewBox="0 0 115 117" version="1.1" xmlns="http://www.w3.org/2000/svg" xmlns:xlink="http://www.w3.org/1999/xlink">
    <defs>
        <style>
            @import url("https://fonts.googleapis.com/css?family=Fredoka+One|Nunito");
        </style>
    </defs>
    <!-- Generator: Sketch 53.2 (72643) - https://sketchapp.com -->
    <title>Group 15</title>
    <desc>Created with Sketch.</desc>
    <g id="Page-1" stroke="none" stroke-width="1" fill="none" fill-rule="evenodd">
        <g id="flourish" transform="translate(-665.000000, -1203.000000)">
            <g id="Group-15" transform="translate(656.000000, 1199.000000)">
                <g id="mapspot-active-copy" transform="translate(64.000000, 63.500000) scale(-1, 1) rotate(-10.000000) translate(-64.000000, -63.500000) translate(9.000000, 9.000000)">
                    <path d="M109.155702,54.0487705 C109.155702,83.8991639 84.8555439,108.097361 54.879386,108.097361 C24.9032281,108.097361 0.603070175,83.8991639 0.603070175,54.0487705 C0.603070175,24.1981967 24.9032281,0 54.879386,0 C84.8555439,0 109.155702,24.1981967 109.155702,54.0487705 Z" id="Path" fill="#FFFFFF"></path>
                    <path d="M7.77842807,27.9398197 C11.4848877,21.4009508 16.5021228,15.7249508 22.4654737,11.2823754" id="Path" stroke="#4F7B38" stroke-width="5" stroke-linecap="round" stroke-linejoin="round"></path>
                    <path d="M84.6365088,98.8200328 C75.9524912,105.096885 65.3309298,108.788557 53.8602456,108.788557 C24.5149474,108.788557 0.725324561,84.6278689 0.725324561,54.8243607 C0.725324561,52.3769508 0.885885965,49.9675902 1.19666491,47.6067377" id="Path" stroke="#4F7B38" stroke-width="5" stroke-linecap="round" stroke-linejoin="round"></path>
                    <path d="M96.7110351,86.7396885 C95.4315614,88.5083443 94.0486491,90.1953115 92.5711754,91.7904918" id="Path" stroke="#4F7B38" stroke-width="5" stroke-linecap="round" stroke-linejoin="round"></path>
                    <path d="M53.8602456,0.860254098 C83.2061228,0.860254098 106.995263,25.0206721 106.995263,54.8243607 C106.995263,61.962459 105.630491,68.7766885 103.152018,75.0129672" id="Path" stroke="#4F7B38" stroke-width="5" stroke-linecap="round" stroke-linejoin="round"></path>
                </g>
                <g id="control" transform="translate(31.000000, 32.000000)">
                    <path d="M17.0790667,51.6726933 C22.79172,51.6726933 27.4227333,47.0988933 27.4227333,41.4568933 C27.4227333,35.8148933 22.79172,31.2411867 17.0790667,31.2411867 C11.3664133,31.2411867 6.73544667,35.8148933 6.73544667,41.4568933 C6.73544667,47.0988933 11.3664133,51.6726933 17.0790667,51.6726933 Z" id="Path" fill="#FFFFFF"></path>
                    <path d="M52.4398933,33.6171733 C58.1525467,33.6171733 62.78356,29.0433733 62.78356,23.4013733 C62.78356,17.7593733 58.1525467,13.1855733 52.4398933,13.1855733 C46.72724,13.1855733 42.0962267,17.7593733 42.0962267,23.4013733 C42.0962267,29.0433733 46.72724,33.6171733 52.4398933,33.6171733 Z" id="Path" fill="#FFFFFF"></path>
                    <path d="M56.0840933,19.1509733 C54.8134533,19.7907733 53.2595467,19.2899467 52.61312,18.0320933 C51.9667867,16.77424 52.4729333,15.23592 53.74348,14.59612 C55.01412,13.95632 56.56812,14.45724 57.2144533,15.7150933 C57.8606933,16.9728533 57.35464,18.5111733 56.0840933,19.1509733 Z M60.47272,27.6915333 C59.20208,28.3313333 57.64808,27.8304133 57.0017467,26.57256 C56.3554133,25.3148 56.8614667,23.7763867 58.1321067,23.1364933 C59.40256,22.4966933 60.9566533,22.9977067 61.60308,24.25556 C62.24932,25.51332 61.7432667,27.05164 60.47272,27.6915333 Z M46.88152,23.7850667 C45.61088,24.4248667 44.0569733,23.9239467 43.4107333,22.6660933 C42.7644,21.40824 43.27036,19.8700133 44.5409067,19.23012 C45.8115467,18.59032 47.3655467,19.0913333 48.01188,20.3491867 C48.6582133,21.6069467 48.15216,23.1451733 46.88152,23.7850667 Z M51.2701467,32.3255333 C49.9995067,32.9653333 48.4456,32.4644133 47.7992667,31.2066533 C47.1529333,29.9488 47.6589867,28.41048 48.9295333,27.7705867 C50.2001733,27.1307867 51.7541733,27.6318 52.4005067,28.88956 C53.04684,30.14732 52.5406933,31.6857333 51.2701467,32.3255333 Z M24.4804933,39.3656667 L19.87916,41.6826667 L22.2197733,46.2376133 L18.7687733,47.9752933 L16.42816,43.42044 L11.8270133,45.73744 L10.0715067,42.3212533 L14.67284,40.00416 L12.3322267,35.4493067 L15.7831333,33.7115333 L18.1237467,38.2663867 L22.7249867,35.94948 L24.4804933,39.3656667 Z M25.1575333,16.3423867 C24.6701467,16.7743333 24.3814667,17.3991067 24.53332,18.55476 L9.81241333,25.96776 C1.35072933,30.2287067 -2.42717907,40.3980267 1.64346,48.8880933 C5.866924,57.6968 16.5666667,61.2681067 25.2883867,56.8762133 C29.2229467,54.89484 32.0699867,51.6368533 33.5789067,47.8708533 C34.5563867,45.4313067 36.3707867,43.4118533 38.7338,42.2218533 L40.4903333,41.3373333 C42.8074267,40.1705733 45.4814267,39.8384 47.9934,40.5015333 C52.46808,41.6828533 57.4328533,41.1138 61.7642667,38.42888 C68.7091067,34.12444 71.69484,25.40552 68.8043067,17.8159333 C65.0734933,8.0206 53.7329333,3.851008 44.5738533,8.46318667 L29.5298267,16.0387733 C28.8390667,15.3900133 28.26208,15.1767467 27.7282133,15.1903733 L25.1575333,16.3423867 Z" id="Shape" fill="#4FB0BB"></path>
                    <path d="M25.1930933,16.3089733 C24.7050533,16.74176 24.4159067,17.3677467 24.56804,18.52564 L9.82622667,25.95236 C1.35264267,30.22124 -2.43061373,40.4094133 1.645784,48.91516 C5.87523067,57.7402933 16.5900933,61.3182267 25.32404,56.9182133 C29.2642933,54.9331067 32.1153467,51.6690533 33.6264133,47.8961467 C34.6052,45.4520267 36.4222133,43.4287467 38.7885867,42.2366 L40.54764,41.3504933 C42.868,40.1814933 45.5458267,39.84876 48.0613467,40.5131067 C52.54228,41.69648 57.51424,41.1264933 61.85172,38.4366267 C68.8062667,34.1240667 71.7963867,25.389 68.90156,17.78532 C65.1656133,7.97188 53.8089067,3.79441067 44.6369467,8.41512 L29.5717333,16.0048933 C28.87976,15.3548267 28.3020267,15.1411867 27.7674133,15.1549067 L25.1930933,16.3089733 Z" id="Path" stroke="#636780" stroke-width="3" stroke-linecap="round" stroke-linejoin="round" stroke-dasharray="20"></path>
                    <polygon id="Path" stroke="#636780" stroke-width="3" stroke-linecap="round" stroke-linejoin="round" points="24.2666667 39.1495067 19.796 41.4236667 22.07016 45.8943333 18.71716 47.6 16.443 43.12924 11.9723333 45.4034933 10.2666667 42.0504 14.7373333 39.7763333 12.4631733 35.3055733 15.8161733 33.6 18.0903333 38.0706667 22.561 35.7964133"></polygon>
                    <path d="M51.66924,32.36184 C50.2911733,33.0627733 48.6058533,32.5139733 47.90492,31.136 C47.2038933,29.7579333 47.7527867,28.07252 49.1306667,27.3715867 C50.5088267,26.67056 52.1941467,27.2194533 52.8951733,28.59752 C53.5961067,29.9755867 53.0473067,31.6608133 51.66924,32.36184 Z" id="Path" stroke="#636780" stroke-width="3" stroke-linecap="round" stroke-linejoin="round"></path>
                    <path d="M47.0025733,23.96184 C45.6245067,24.6627733 43.9391867,24.1139733 43.2382533,22.736 C42.5372267,21.3579333 43.08612,19.67252 44.4640933,18.9714933 C45.84216,18.27056 47.5275733,18.81936 48.2285067,20.1974267 C48.92944,21.5754933 48.3805467,23.2608133 47.0025733,23.96184 Z" id="Path" stroke="#636780" stroke-width="3" stroke-linecap="round" stroke-linejoin="round"></path>
                    <path d="M61.0025733,27.6951733 C59.6246,28.3961067 57.9391867,27.8473067 57.2382533,26.4693333 C56.5372267,25.0912667 57.08612,23.4058533 58.464,22.7048267 C59.8420667,22.0038933 61.52748,22.5526933 62.2284133,23.93076 C62.92944,25.3088267 62.3805467,26.9941467 61.0025733,27.6951733 Z" id="Path" stroke="#636780" stroke-width="3" stroke-linecap="round" stroke-linejoin="round"></path>
                    <path d="M56.3359067,19.2951733 C54.9579333,19.9961067 53.27252,19.4473067 52.5715867,18.0693333 C51.87056,16.6912667 52.4194533,15.0058533 53.7973333,14.30492 C55.1754933,13.6038933 56.8608133,14.1527867 57.56184,15.5308533 C58.2627733,16.90892 57.7139733,18.5941467 56.3359067,19.2951733 Z" id="Path" stroke="#636780" stroke-width="3" stroke-linecap="round" stroke-linejoin="round"></path>
                    <path d="M27.0666667,14.9333333 C27.0666667,14.9333333 22.41988,4.76364933 15.3150667,7.16954 C9.67558667,9.07909333 1.917412,7.84317333 1.86666667,0" id="Path" stroke="#636780" stroke-width="3" stroke-linecap="round" stroke-linejoin="round"></path>
                </g>
                <circle id="Oval-Copy" fill="#4FB0BB" cx="106" cy="22" r="18"></circle>
                <text id="2" font-family="Fredoka One" font-size="20" font-weight="normal" line-spacing="24" letter-spacing="-0.06000001" fill="#FFFFFF">
                    <tspan x="100.44" y="29">2</tspan>
                </text>
            </g>
        </g>
    </g>
</svg>
