<svg width="270" height="61" viewBox="0 0 270 61" fill="none" xmlns="http://www.w3.org/2000/svg">
<g clip-path="url(#clip0)">
<path fill-rule="evenodd" clip-rule="evenodd" d="M240.977 58.7143H30.023C15.0983 58.7143 3 46.2422 3 30.8571C3 15.4721 15.0983 3 30.023 3H240.977C255.901 3 268 15.4721 268 30.8571C268 46.2422 255.901 58.7143 240.977 58.7143Z" fill="#F8D331"/>
<path d="M81.452 34.392L81.884 34.08C82.428 33.76 82.812 33.6 83.036 33.6C83.532 33.6 84.068 34.048 84.644 34.944C84.996 35.504 85.172 35.952 85.172 36.288C85.172 36.624 85.06 36.904 84.836 37.128C84.628 37.352 84.38 37.552 84.092 37.728C83.804 37.904 83.524 38.072 83.252 38.232C82.996 38.392 82.46 38.6 81.644 38.856C80.828 39.112 80.036 39.24 79.268 39.24C78.516 39.24 77.748 39.144 76.964 38.952C76.196 38.744 75.396 38.408 74.564 37.944C73.748 37.464 73.012 36.888 72.356 36.216C71.7 35.528 71.156 34.656 70.724 33.6C70.308 32.528 70.1 31.368 70.1 30.12C70.1 28.872 70.308 27.744 70.724 26.736C71.14 25.712 71.668 24.872 72.308 24.216C72.964 23.544 73.708 22.984 74.54 22.536C76.108 21.672 77.684 21.24 79.268 21.24C80.02 21.24 80.78 21.36 81.548 21.6C82.332 21.824 82.924 22.056 83.324 22.296L83.9 22.632C84.188 22.808 84.412 22.952 84.572 23.064C84.988 23.4 85.196 23.784 85.196 24.216C85.196 24.632 85.028 25.072 84.692 25.536C84.068 26.4 83.508 26.832 83.012 26.832C82.724 26.832 82.316 26.656 81.788 26.304C81.116 25.76 80.22 25.488 79.1 25.488C78.06 25.488 77.036 25.848 76.028 26.568C75.548 26.92 75.148 27.416 74.828 28.056C74.508 28.696 74.348 29.424 74.348 30.24C74.348 31.04 74.508 31.76 74.828 32.4C75.148 33.04 75.556 33.544 76.052 33.912C77.028 34.616 78.044 34.968 79.1 34.968C79.596 34.968 80.06 34.904 80.492 34.776C80.94 34.648 81.26 34.52 81.452 34.392ZM86.3891 32.688C86.3891 30.768 87.0611 29.184 88.4051 27.936C89.7491 26.688 91.2851 26.064 93.0131 26.064C94.7411 26.064 96.2691 26.688 97.5971 27.936C98.9251 29.168 99.5891 30.744 99.5891 32.664C99.5891 33.992 99.2451 35.176 98.5571 36.216C97.8691 37.24 97.0291 38 96.0371 38.496C95.0611 38.976 94.0451 39.216 92.9891 39.216C91.9331 39.216 90.9091 38.96 89.9171 38.448C88.9251 37.92 88.0851 37.152 87.3971 36.144C86.7251 35.12 86.3891 33.968 86.3891 32.688ZM91.4051 34.416C91.9171 34.8 92.4371 34.992 92.9651 34.992C93.4931 34.992 94.0211 34.792 94.5491 34.392C95.0771 33.992 95.3411 33.4 95.3411 32.616C95.3411 31.832 95.0931 31.248 94.5971 30.864C94.1011 30.48 93.5651 30.288 92.9891 30.288C92.4131 30.288 91.8771 30.488 91.3811 30.888C90.8851 31.288 90.6371 31.88 90.6371 32.664C90.6371 33.432 90.8931 34.016 91.4051 34.416ZM108.172 26.352C109.772 26.352 111.1 26.968 112.156 28.2C113.228 29.416 113.764 30.904 113.764 32.664V36.888C113.764 37.256 113.748 37.536 113.716 37.728C113.7 37.904 113.636 38.104 113.524 38.328C113.3 38.76 112.676 38.976 111.652 38.976C110.516 38.976 109.86 38.68 109.684 38.088C109.588 37.816 109.54 37.408 109.54 36.864V32.64C109.54 31.984 109.348 31.472 108.964 31.104C108.596 30.736 108.092 30.552 107.452 30.552C106.828 30.552 106.316 30.744 105.916 31.128C105.532 31.512 105.34 32.016 105.34 32.64V36.888C105.34 37.256 105.324 37.536 105.292 37.728C105.276 37.904 105.204 38.104 105.076 38.328C104.868 38.76 104.252 38.976 103.228 38.976C102.22 38.976 101.604 38.76 101.38 38.328C101.268 38.088 101.196 37.88 101.164 37.704C101.148 37.512 101.14 37.232 101.14 36.864V28.368C101.14 28.016 101.148 27.752 101.164 27.576C101.196 27.384 101.276 27.176 101.404 26.952C101.628 26.552 102.244 26.352 103.252 26.352C104.228 26.352 104.828 26.536 105.052 26.904C105.212 27.176 105.292 27.504 105.292 27.888C105.356 27.776 105.5 27.616 105.724 27.408C105.948 27.2 106.164 27.032 106.372 26.904C106.916 26.536 107.516 26.352 108.172 26.352ZM122.804 30.6L121.244 30.504V33.816C121.244 34.248 121.308 34.56 121.436 34.752C121.58 34.944 121.836 35.04 122.204 35.04C122.588 35.04 122.876 35.056 123.068 35.088C123.276 35.104 123.492 35.176 123.716 35.304C124.084 35.512 124.268 36.048 124.268 36.912C124.268 37.92 124.044 38.536 123.596 38.76C123.356 38.872 123.14 38.944 122.948 38.976C122.772 38.992 122.508 39 122.156 39C120.492 39 119.228 38.624 118.364 37.872C117.5 37.12 117.068 35.848 117.068 34.056V30.504C116.764 30.552 116.436 30.576 116.084 30.576C115.732 30.576 115.436 30.44 115.196 30.168C114.972 29.896 114.86 29.432 114.86 28.776C114.86 28.12 114.9 27.648 114.98 27.36C115.06 27.056 115.172 26.84 115.316 26.712C115.572 26.504 115.892 26.4 116.276 26.4L117.068 26.496V24.024C117.068 23.656 117.076 23.384 117.092 23.208C117.124 23.032 117.204 22.84 117.332 22.632C117.54 22.232 118.156 22.032 119.18 22.032C120.268 22.032 120.916 22.328 121.124 22.92C121.204 23.176 121.244 23.584 121.244 24.144V26.496C121.948 26.432 122.476 26.4 122.828 26.4C123.196 26.4 123.468 26.416 123.644 26.448C123.836 26.464 124.052 26.536 124.292 26.664C124.708 26.872 124.916 27.488 124.916 28.512C124.916 29.52 124.7 30.136 124.268 30.36C124.028 30.472 123.812 30.544 123.62 30.576C123.444 30.592 123.172 30.6 122.804 30.6ZM134.449 27.696C134.545 26.8 135.177 26.352 136.345 26.352C136.969 26.352 137.433 26.4 137.737 26.496C138.041 26.592 138.249 26.76 138.361 27C138.489 27.24 138.561 27.456 138.577 27.648C138.609 27.824 138.625 28.096 138.625 28.464V36.864C138.625 37.232 138.609 37.512 138.577 37.704C138.561 37.88 138.497 38.088 138.385 38.328C138.161 38.744 137.609 38.952 136.729 38.952C135.865 38.952 135.281 38.848 134.977 38.64C134.689 38.416 134.521 38.096 134.473 37.68C133.881 38.528 132.889 38.952 131.497 38.952C130.121 38.952 128.841 38.32 127.657 37.056C126.473 35.792 125.881 34.328 125.881 32.664C125.881 30.984 126.473 29.52 127.657 28.272C128.857 27.008 130.169 26.376 131.593 26.376C132.137 26.376 132.633 26.472 133.081 26.664C133.529 26.856 133.841 27.04 134.017 27.216C134.193 27.376 134.337 27.536 134.449 27.696ZM130.081 32.688C130.081 33.216 130.289 33.696 130.705 34.128C131.121 34.544 131.625 34.752 132.217 34.752C132.809 34.752 133.297 34.536 133.681 34.104C134.081 33.672 134.281 33.2 134.281 32.688C134.281 32.16 134.089 31.672 133.705 31.224C133.337 30.776 132.833 30.552 132.193 30.552C131.569 30.552 131.057 30.776 130.657 31.224C130.273 31.672 130.081 32.16 130.081 32.688ZM144.498 32.688C144.498 33.36 144.722 33.888 145.17 34.272C145.618 34.64 146.09 34.824 146.586 34.824C147.098 34.824 147.57 34.68 148.002 34.392C148.45 34.088 148.81 33.936 149.082 33.936C149.562 33.936 150.146 34.36 150.834 35.208C151.202 35.672 151.386 36.088 151.386 36.456C151.386 37.064 150.946 37.632 150.066 38.16C149.154 38.8 148.034 39.12 146.706 39.12C145.218 39.12 143.786 38.584 142.41 37.512C141.754 37 141.218 36.32 140.802 35.472C140.386 34.608 140.178 33.664 140.178 32.64C140.178 31.6 140.386 30.664 140.802 29.832C141.218 28.984 141.754 28.304 142.41 27.792C143.738 26.736 145.154 26.208 146.658 26.208C147.266 26.208 147.858 26.296 148.434 26.472C149.01 26.632 149.434 26.792 149.706 26.952L150.09 27.192C150.378 27.384 150.602 27.536 150.762 27.648C151.178 27.968 151.386 28.336 151.386 28.752C151.386 29.152 151.218 29.608 150.882 30.12C150.306 31 149.754 31.44 149.226 31.44C148.922 31.44 148.49 31.264 147.93 30.912C147.642 30.64 147.226 30.504 146.682 30.504C146.154 30.504 145.658 30.696 145.194 31.08C144.73 31.464 144.498 32 144.498 32.688ZM160.046 30.6L158.486 30.504V33.816C158.486 34.248 158.55 34.56 158.678 34.752C158.822 34.944 159.078 35.04 159.446 35.04C159.83 35.04 160.118 35.056 160.31 35.088C160.518 35.104 160.734 35.176 160.958 35.304C161.326 35.512 161.51 36.048 161.51 36.912C161.51 37.92 161.286 38.536 160.838 38.76C160.598 38.872 160.382 38.944 160.19 38.976C160.014 38.992 159.75 39 159.398 39C157.734 39 156.47 38.624 155.606 37.872C154.742 37.12 154.31 35.848 154.31 34.056V30.504C154.006 30.552 153.678 30.576 153.326 30.576C152.974 30.576 152.678 30.44 152.438 30.168C152.214 29.896 152.102 29.432 152.102 28.776C152.102 28.12 152.142 27.648 152.222 27.36C152.302 27.056 152.414 26.84 152.558 26.712C152.814 26.504 153.134 26.4 153.518 26.4L154.31 26.496V24.024C154.31 23.656 154.318 23.384 154.334 23.208C154.366 23.032 154.446 22.84 154.574 22.632C154.782 22.232 155.398 22.032 156.422 22.032C157.51 22.032 158.158 22.328 158.366 22.92C158.446 23.176 158.486 23.584 158.486 24.144V26.496C159.19 26.432 159.718 26.4 160.07 26.4C160.438 26.4 160.71 26.416 160.886 26.448C161.078 26.464 161.294 26.536 161.534 26.664C161.95 26.872 162.158 27.488 162.158 28.512C162.158 29.52 161.942 30.136 161.51 30.36C161.27 30.472 161.054 30.544 160.862 30.576C160.686 30.592 160.414 30.6 160.046 30.6ZM181.05 22.056C181.21 21.8 181.442 21.624 181.746 21.528C182.05 21.432 182.426 21.384 182.874 21.384C183.338 21.384 183.706 21.424 183.978 21.504C184.25 21.584 184.458 21.68 184.602 21.792C184.746 21.904 184.85 22.072 184.914 22.296C185.01 22.568 185.058 22.984 185.058 23.544V30.792C185.058 32.904 184.402 34.824 183.09 36.552C182.45 37.368 181.626 38.032 180.618 38.544C179.61 39.04 178.49 39.288 177.258 39.288C176.042 39.288 174.93 39.032 173.922 38.52C172.93 38.008 172.122 37.336 171.498 36.504C170.202 34.808 169.554 32.888 169.554 30.744V23.52C169.554 23.136 169.562 22.856 169.578 22.68C169.61 22.488 169.69 22.272 169.818 22.032C169.946 21.792 170.162 21.624 170.466 21.528C170.77 21.432 171.178 21.384 171.69 21.384C172.202 21.384 172.61 21.432 172.914 21.528C173.218 21.624 173.426 21.792 173.538 22.032C173.73 22.4 173.826 22.904 173.826 23.544V30.744C173.826 31.72 174.066 32.648 174.546 33.528C174.786 33.976 175.146 34.336 175.626 34.608C176.106 34.88 176.674 35.016 177.33 35.016C178.498 35.016 179.37 34.584 179.946 33.72C180.522 32.856 180.81 31.856 180.81 30.72V23.376C180.81 22.752 180.89 22.312 181.05 22.056ZM186.595 37.872C186.291 37.68 186.139 37.376 186.139 36.96C186.139 36.544 186.443 35.912 187.051 35.064C187.227 34.792 187.507 34.656 187.891 34.656C188.291 34.656 188.827 34.856 189.499 35.256C190.171 35.64 190.779 35.832 191.323 35.832C192.299 35.832 192.787 35.64 192.787 35.256C192.787 34.952 192.251 34.728 191.179 34.584C190.171 34.44 189.171 34.064 188.179 33.456C187.715 33.168 187.331 32.72 187.027 32.112C186.723 31.488 186.571 30.752 186.571 29.904C186.571 27.376 188.307 26.112 191.779 26.112C192.915 26.112 194.083 26.384 195.283 26.928C195.843 27.184 196.123 27.504 196.123 27.888C196.123 28.272 195.947 28.744 195.595 29.304C195.243 29.864 194.883 30.144 194.515 30.144C194.323 30.144 193.963 30.024 193.435 29.784C192.923 29.544 192.363 29.424 191.755 29.424C190.811 29.424 190.339 29.6 190.339 29.952C190.339 30.432 190.883 30.744 191.971 30.888C193.027 31 194.051 31.304 195.043 31.8C195.507 32.024 195.891 32.416 196.195 32.976C196.515 33.52 196.675 34.208 196.675 35.04C196.675 35.872 196.515 36.584 196.195 37.176C195.891 37.752 195.459 38.184 194.899 38.472C193.875 38.968 192.587 39.216 191.035 39.216C189.499 39.216 188.019 38.768 186.595 37.872ZM198.481 35.352C198.641 35.032 198.881 34.816 199.201 34.704C199.537 34.592 200.049 34.536 200.737 34.536C201.441 34.536 201.945 34.688 202.249 34.992C202.569 35.296 202.729 35.776 202.729 36.432V36.816C202.729 37.2 202.713 37.488 202.681 37.68C202.665 37.856 202.593 38.072 202.465 38.328C202.209 38.792 201.593 39.024 200.617 39.024C199.657 39.024 199.017 38.872 198.697 38.568C198.393 38.248 198.241 37.64 198.241 36.744C198.241 36.12 198.321 35.656 198.481 35.352ZM201.697 32.544C201.393 32.624 200.985 32.664 200.473 32.664C199.961 32.664 199.553 32.624 199.249 32.544C198.945 32.464 198.729 32.32 198.601 32.112C198.489 31.904 198.417 31.72 198.385 31.56C198.369 31.4 198.361 31.152 198.361 30.816V23.208C198.361 22.872 198.369 22.624 198.385 22.464C198.417 22.288 198.497 22.096 198.625 21.888C198.753 21.68 198.969 21.536 199.273 21.456C199.577 21.36 199.985 21.312 200.497 21.312C201.009 21.312 201.417 21.36 201.721 21.456C202.025 21.536 202.233 21.688 202.345 21.912C202.473 22.12 202.545 22.312 202.561 22.488C202.593 22.648 202.609 22.896 202.609 23.232V30.84C202.609 31.176 202.593 31.424 202.561 31.584C202.545 31.744 202.473 31.928 202.345 32.136C202.217 32.328 202.001 32.464 201.697 32.544Z" fill="#4F7B38"/>
<path d="M3 30.4098C3 25.4337 4.27587 20.7636 6.50959 16.7266" stroke="#4F7B38" stroke-width="5" stroke-linecap="round" stroke-linejoin="round"/>
<path d="M262.971 46.3289C258.092 53.4843 250.008 58.1627 240.86 58.1627H30.1831C17.1726 58.1627 6.31317 48.699 3.76794 36.1055" stroke="#4F7B38" stroke-width="5" stroke-linecap="round" stroke-linejoin="round"/>
<path d="M12.2151 9.74643C16.9447 5.54269 23.1112 3 29.8553 3H240.532C255.432 3 267.511 15.4122 267.511 30.7234C267.511 32.4973 267.349 34.2331 267.039 35.9142" stroke="#4F7B38" stroke-width="5" stroke-linecap="round" stroke-linejoin="round"/>
</g>
<defs>
<clipPath id="clip0">
<rect width="270" height="61" fill="white"/>
</clipPath>
</defs>
</svg>
