<svg width="180" height="48" viewBox="0 0 180 48" fill="none" xmlns="http://www.w3.org/2000/svg">
<path d="M2 23.5894C2 19.67 3.0396 15.9915 4.85967 12.8118" stroke="white" stroke-width="4" stroke-linecap="round" stroke-linejoin="round"/>
<path d="M173.828 36.1282C169.853 41.7642 163.266 45.4491 155.812 45.4491H24.1492C13.548 45.4491 4.69962 37.995 2.62573 28.0757" stroke="white" stroke-width="4" stroke-linecap="round" stroke-linejoin="round"/>
<path d="M9.50861 7.31385C13.3624 4.00276 18.3869 2 23.8821 2H155.545C167.685 2 177.527 12.4372 177.527 23.8365C177.527 25.2337 177.395 26.6009 177.143 27.925" stroke="white" stroke-width="4" stroke-linecap="round" stroke-linejoin="round"/>
<path d="M43.96 27.16L44.32 26.9C44.7733 26.6333 45.0933 26.5 45.28 26.5C45.6933 26.5 46.14 26.8733 46.62 27.62C46.9133 28.0867 47.06 28.46 47.06 28.74C47.06 29.02 46.9667 29.2533 46.78 29.44C46.6067 29.6267 46.4 29.7933 46.16 29.94C45.92 30.0867 45.6867 30.2267 45.46 30.36C45.2467 30.4933 44.8 30.6667 44.12 30.88C43.44 31.0933 42.78 31.2 42.14 31.2C41.5133 31.2 40.8733 31.12 40.22 30.96C39.58 30.7867 38.9133 30.5067 38.22 30.12C37.54 29.72 36.9267 29.24 36.38 28.68C35.8333 28.1067 35.38 27.38 35.02 26.5C34.6733 25.6067 34.5 24.64 34.5 23.6C34.5 22.56 34.6733 21.62 35.02 20.78C35.3667 19.9267 35.8067 19.2267 36.34 18.68C36.8867 18.12 37.5067 17.6533 38.2 17.28C39.5067 16.56 40.82 16.2 42.14 16.2C42.7667 16.2 43.4 16.3 44.04 16.5C44.6933 16.6867 45.1867 16.88 45.52 17.08L46 17.36C46.24 17.5067 46.4267 17.6267 46.56 17.72C46.9067 18 47.08 18.32 47.08 18.68C47.08 19.0267 46.94 19.3933 46.66 19.78C46.14 20.5 45.6733 20.86 45.26 20.86C45.02 20.86 44.68 20.7133 44.24 20.42C43.68 19.9667 42.9333 19.74 42 19.74C41.1333 19.74 40.28 20.04 39.44 20.64C39.04 20.9333 38.7067 21.3467 38.44 21.88C38.1733 22.4133 38.04 23.02 38.04 23.7C38.04 24.3667 38.1733 24.9667 38.44 25.5C38.7067 26.0333 39.0467 26.4533 39.46 26.76C40.2733 27.3467 41.12 27.64 42 27.64C42.4133 27.64 42.8 27.5867 43.16 27.48C43.5333 27.3733 43.8 27.2667 43.96 27.16ZM48.0742 25.74C48.0742 24.14 48.6342 22.82 49.7542 21.78C50.8742 20.74 52.1542 20.22 53.5942 20.22C55.0342 20.22 56.3076 20.74 57.4142 21.78C58.5209 22.8067 59.0742 24.12 59.0742 25.72C59.0742 26.8267 58.7876 27.8133 58.2142 28.68C57.6409 29.5333 56.9409 30.1667 56.1142 30.58C55.3009 30.98 54.4542 31.18 53.5742 31.18C52.6942 31.18 51.8409 30.9667 51.0142 30.54C50.1876 30.1 49.4876 29.46 48.9142 28.62C48.3542 27.7667 48.0742 26.8067 48.0742 25.74ZM52.2542 27.18C52.6809 27.5 53.1142 27.66 53.5542 27.66C53.9942 27.66 54.4342 27.4933 54.8742 27.16C55.3142 26.8267 55.5342 26.3333 55.5342 25.68C55.5342 25.0267 55.3276 24.54 54.9142 24.22C54.5009 23.9 54.0542 23.74 53.5742 23.74C53.0942 23.74 52.6476 23.9067 52.2342 24.24C51.8209 24.5733 51.6142 25.0667 51.6142 25.72C51.6142 26.36 51.8276 26.8467 52.2542 27.18ZM66.2264 20.46C67.5597 20.46 68.6664 20.9733 69.5464 22C70.4397 23.0133 70.8864 24.2533 70.8864 25.72V29.24C70.8864 29.5467 70.8731 29.78 70.8464 29.94C70.8331 30.0867 70.7797 30.2533 70.6864 30.44C70.4997 30.8 69.9797 30.98 69.1264 30.98C68.1797 30.98 67.6331 30.7333 67.4864 30.24C67.4064 30.0133 67.3664 29.6733 67.3664 29.22V25.7C67.3664 25.1533 67.2064 24.7267 66.8864 24.42C66.5797 24.1133 66.1597 23.96 65.6264 23.96C65.1064 23.96 64.6797 24.12 64.3464 24.44C64.0264 24.76 63.8664 25.18 63.8664 25.7V29.24C63.8664 29.5467 63.8531 29.78 63.8264 29.94C63.8131 30.0867 63.7531 30.2533 63.6464 30.44C63.4731 30.8 62.9597 30.98 62.1064 30.98C61.2664 30.98 60.7531 30.8 60.5664 30.44C60.4731 30.24 60.4131 30.0667 60.3864 29.92C60.3731 29.76 60.3664 29.5267 60.3664 29.22V22.14C60.3664 21.8467 60.3731 21.6267 60.3864 21.48C60.4131 21.32 60.4797 21.1467 60.5864 20.96C60.7731 20.6267 61.2864 20.46 62.1264 20.46C62.9397 20.46 63.4397 20.6133 63.6264 20.92C63.7597 21.1467 63.8264 21.42 63.8264 21.74C63.8797 21.6467 63.9997 21.5133 64.1864 21.34C64.3731 21.1667 64.5531 21.0267 64.7264 20.92C65.1797 20.6133 65.6797 20.46 66.2264 20.46ZM78.42 24L77.12 23.92V26.68C77.12 27.04 77.1733 27.3 77.28 27.46C77.4 27.62 77.6133 27.7 77.92 27.7C78.24 27.7 78.48 27.7133 78.64 27.74C78.8133 27.7533 78.9933 27.8133 79.18 27.92C79.4867 28.0933 79.64 28.54 79.64 29.26C79.64 30.1 79.4533 30.6133 79.08 30.8C78.88 30.8933 78.7 30.9533 78.54 30.98C78.3933 30.9933 78.1733 31 77.88 31C76.4933 31 75.44 30.6867 74.72 30.06C74 29.4333 73.64 28.3733 73.64 26.88V23.92C73.3867 23.96 73.1133 23.98 72.82 23.98C72.5267 23.98 72.28 23.8667 72.08 23.64C71.8933 23.4133 71.8 23.0267 71.8 22.48C71.8 21.9333 71.8333 21.54 71.9 21.3C71.9667 21.0467 72.06 20.8667 72.18 20.76C72.3933 20.5867 72.66 20.5 72.98 20.5L73.64 20.58V18.52C73.64 18.2133 73.6467 17.9867 73.66 17.84C73.6867 17.6933 73.7533 17.5333 73.86 17.36C74.0333 17.0267 74.5467 16.86 75.4 16.86C76.3067 16.86 76.8467 17.1067 77.02 17.6C77.0867 17.8133 77.12 18.1533 77.12 18.62V20.58C77.7067 20.5267 78.1467 20.5 78.44 20.5C78.7467 20.5 78.9733 20.5133 79.12 20.54C79.28 20.5533 79.46 20.6133 79.66 20.72C80.0067 20.8933 80.18 21.4067 80.18 22.26C80.18 23.1 80 23.6133 79.64 23.8C79.44 23.8933 79.26 23.9533 79.1 23.98C78.9533 23.9933 78.7267 24 78.42 24ZM88.1244 21.58C88.2044 20.8333 88.731 20.46 89.7044 20.46C90.2244 20.46 90.611 20.5 90.8644 20.58C91.1177 20.66 91.291 20.8 91.3844 21C91.491 21.2 91.551 21.38 91.5644 21.54C91.591 21.6867 91.6044 21.9133 91.6044 22.22V29.22C91.6044 29.5267 91.591 29.76 91.5644 29.92C91.551 30.0667 91.4977 30.24 91.4044 30.44C91.2177 30.7867 90.7577 30.96 90.0244 30.96C89.3044 30.96 88.8177 30.8733 88.5644 30.7C88.3244 30.5133 88.1844 30.2467 88.1444 29.9C87.651 30.6067 86.8244 30.96 85.6644 30.96C84.5177 30.96 83.451 30.4333 82.4644 29.38C81.4777 28.3267 80.9844 27.1067 80.9844 25.72C80.9844 24.32 81.4777 23.1 82.4644 22.06C83.4644 21.0067 84.5577 20.48 85.7444 20.48C86.1977 20.48 86.611 20.56 86.9844 20.72C87.3577 20.88 87.6177 21.0333 87.7644 21.18C87.911 21.3133 88.031 21.4467 88.1244 21.58ZM84.4844 25.74C84.4844 26.18 84.6577 26.58 85.0044 26.94C85.351 27.2867 85.771 27.46 86.2644 27.46C86.7577 27.46 87.1644 27.28 87.4844 26.92C87.8177 26.56 87.9844 26.1667 87.9844 25.74C87.9844 25.3 87.8244 24.8933 87.5044 24.52C87.1977 24.1467 86.7777 23.96 86.2444 23.96C85.7244 23.96 85.2977 24.1467 84.9644 24.52C84.6444 24.8933 84.4844 25.3 84.4844 25.74ZM96.4984 25.74C96.4984 26.3 96.6851 26.74 97.0584 27.06C97.4318 27.3667 97.8251 27.52 98.2384 27.52C98.6651 27.52 99.0584 27.4 99.4184 27.16C99.7918 26.9067 100.092 26.78 100.318 26.78C100.718 26.78 101.205 27.1333 101.778 27.84C102.085 28.2267 102.238 28.5733 102.238 28.88C102.238 29.3867 101.872 29.86 101.138 30.3C100.378 30.8333 99.4451 31.1 98.3384 31.1C97.0984 31.1 95.9051 30.6533 94.7584 29.76C94.2118 29.3333 93.7651 28.7667 93.4184 28.06C93.0718 27.34 92.8984 26.5533 92.8984 25.7C92.8984 24.8333 93.0718 24.0533 93.4184 23.36C93.7651 22.6533 94.2118 22.0867 94.7584 21.66C95.8651 20.78 97.0451 20.34 98.2984 20.34C98.8051 20.34 99.2984 20.4133 99.7784 20.56C100.258 20.6933 100.612 20.8267 100.838 20.96L101.158 21.16C101.398 21.32 101.585 21.4467 101.718 21.54C102.065 21.8067 102.238 22.1133 102.238 22.46C102.238 22.7933 102.098 23.1733 101.818 23.6C101.338 24.3333 100.878 24.7 100.438 24.7C100.185 24.7 99.8251 24.5533 99.3584 24.26C99.1184 24.0333 98.7718 23.92 98.3184 23.92C97.8784 23.92 97.4651 24.08 97.0784 24.4C96.6918 24.72 96.4984 25.1667 96.4984 25.74ZM109.455 24L108.155 23.92V26.68C108.155 27.04 108.208 27.3 108.315 27.46C108.435 27.62 108.648 27.7 108.955 27.7C109.275 27.7 109.515 27.7133 109.675 27.74C109.848 27.7533 110.028 27.8133 110.215 27.92C110.522 28.0933 110.675 28.54 110.675 29.26C110.675 30.1 110.488 30.6133 110.115 30.8C109.915 30.8933 109.735 30.9533 109.575 30.98C109.428 30.9933 109.208 31 108.915 31C107.528 31 106.475 30.6867 105.755 30.06C105.035 29.4333 104.675 28.3733 104.675 26.88V23.92C104.422 23.96 104.148 23.98 103.855 23.98C103.562 23.98 103.315 23.8667 103.115 23.64C102.928 23.4133 102.835 23.0267 102.835 22.48C102.835 21.9333 102.868 21.54 102.935 21.3C103.002 21.0467 103.095 20.8667 103.215 20.76C103.428 20.5867 103.695 20.5 104.015 20.5L104.675 20.58V18.52C104.675 18.2133 104.682 17.9867 104.695 17.84C104.722 17.6933 104.788 17.5333 104.895 17.36C105.068 17.0267 105.582 16.86 106.435 16.86C107.342 16.86 107.882 17.1067 108.055 17.6C108.122 17.8133 108.155 18.1533 108.155 18.62V20.58C108.742 20.5267 109.182 20.5 109.475 20.5C109.782 20.5 110.008 20.5133 110.155 20.54C110.315 20.5533 110.495 20.6133 110.695 20.72C111.042 20.8933 111.215 21.4067 111.215 22.26C111.215 23.1 111.035 23.6133 110.675 23.8C110.475 23.8933 110.295 23.9533 110.135 23.98C109.988 23.9933 109.762 24 109.455 24ZM126.958 16.88C127.091 16.6667 127.285 16.52 127.538 16.44C127.791 16.36 128.105 16.32 128.478 16.32C128.865 16.32 129.171 16.3533 129.398 16.42C129.625 16.4867 129.798 16.5667 129.918 16.66C130.038 16.7533 130.125 16.8933 130.178 17.08C130.258 17.3067 130.298 17.6533 130.298 18.12V24.16C130.298 25.92 129.751 27.52 128.658 28.96C128.125 29.64 127.438 30.1933 126.598 30.62C125.758 31.0333 124.825 31.24 123.798 31.24C122.785 31.24 121.858 31.0267 121.018 30.6C120.191 30.1733 119.518 29.6133 118.998 28.92C117.918 27.5067 117.378 25.9067 117.378 24.12V18.1C117.378 17.78 117.385 17.5467 117.398 17.4C117.425 17.24 117.491 17.06 117.598 16.86C117.705 16.66 117.885 16.52 118.138 16.44C118.391 16.36 118.731 16.32 119.158 16.32C119.585 16.32 119.925 16.36 120.178 16.44C120.431 16.52 120.605 16.66 120.698 16.86C120.858 17.1667 120.938 17.5867 120.938 18.12V24.12C120.938 24.9333 121.138 25.7067 121.538 26.44C121.738 26.8133 122.038 27.1133 122.438 27.34C122.838 27.5667 123.311 27.68 123.858 27.68C124.831 27.68 125.558 27.32 126.038 26.6C126.518 25.88 126.758 25.0467 126.758 24.1V17.98C126.758 17.46 126.825 17.0933 126.958 16.88ZM131.579 30.06C131.326 29.9 131.199 29.6467 131.199 29.3C131.199 28.9533 131.453 28.4267 131.959 27.72C132.106 27.4933 132.339 27.38 132.659 27.38C132.993 27.38 133.439 27.5467 133.999 27.88C134.559 28.2 135.066 28.36 135.519 28.36C136.333 28.36 136.739 28.2 136.739 27.88C136.739 27.6267 136.293 27.44 135.399 27.32C134.559 27.2 133.726 26.8867 132.899 26.38C132.513 26.14 132.193 25.7667 131.939 25.26C131.686 24.74 131.559 24.1267 131.559 23.42C131.559 21.3133 133.006 20.26 135.899 20.26C136.846 20.26 137.819 20.4867 138.819 20.94C139.286 21.1533 139.519 21.42 139.519 21.74C139.519 22.06 139.373 22.4533 139.079 22.92C138.786 23.3867 138.486 23.62 138.179 23.62C138.019 23.62 137.719 23.52 137.279 23.32C136.853 23.12 136.386 23.02 135.879 23.02C135.093 23.02 134.699 23.1667 134.699 23.46C134.699 23.86 135.153 24.12 136.059 24.24C136.939 24.3333 137.793 24.5867 138.619 25C139.006 25.1867 139.326 25.5133 139.579 25.98C139.846 26.4333 139.979 27.0067 139.979 27.7C139.979 28.3933 139.846 28.9867 139.579 29.48C139.326 29.96 138.966 30.32 138.499 30.56C137.646 30.9733 136.573 31.18 135.279 31.18C133.999 31.18 132.766 30.8067 131.579 30.06ZM141.484 27.96C141.618 27.6933 141.818 27.5133 142.084 27.42C142.364 27.3267 142.791 27.28 143.364 27.28C143.951 27.28 144.371 27.4067 144.624 27.66C144.891 27.9133 145.024 28.3133 145.024 28.86V29.18C145.024 29.5 145.011 29.74 144.984 29.9C144.971 30.0467 144.911 30.2267 144.804 30.44C144.591 30.8267 144.078 31.02 143.264 31.02C142.464 31.02 141.931 30.8933 141.664 30.64C141.411 30.3733 141.284 29.8667 141.284 29.12C141.284 28.6 141.351 28.2133 141.484 27.96ZM144.164 25.62C143.911 25.6867 143.571 25.72 143.144 25.72C142.718 25.72 142.378 25.6867 142.124 25.62C141.871 25.5533 141.691 25.4333 141.584 25.26C141.491 25.0867 141.431 24.9333 141.404 24.8C141.391 24.6667 141.384 24.46 141.384 24.18V17.84C141.384 17.56 141.391 17.3533 141.404 17.22C141.431 17.0733 141.498 16.9133 141.604 16.74C141.711 16.5667 141.891 16.4467 142.144 16.38C142.398 16.3 142.738 16.26 143.164 16.26C143.591 16.26 143.931 16.3 144.184 16.38C144.438 16.4467 144.611 16.5733 144.704 16.76C144.811 16.9333 144.871 17.0933 144.884 17.24C144.911 17.3733 144.924 17.58 144.924 17.86V24.2C144.924 24.48 144.911 24.6867 144.884 24.82C144.871 24.9533 144.811 25.1067 144.704 25.28C144.598 25.44 144.418 25.5533 144.164 25.62Z" fill="white"/>
</svg>
