<?xml version="1.0" encoding="UTF-8"?>
<svg width="193px" height="46px" viewBox="0 0 193 46" version="1.1" xmlns="http://www.w3.org/2000/svg" xmlns:xlink="http://www.w3.org/1999/xlink">
    <!-- Generator: Sketch 53.2 (72643) - https://sketchapp.com -->
    <title>Group 28</title>
    <desc>Created with Sketch.</desc>
    <defs>
        <path d="M1.21978187,1.2374 C0.460356941,1.95202353 0.0825580737,2.83522353 0.0825580737,3.88294118 L0.0825580737,3.88294118 C0.0825580737,4.93688235 0.460356941,5.83685882 1.21978187,6.58882353 L1.21978187,6.58882353 C1.97701983,7.33970588 2.89007932,7.71311765 3.95239943,7.71311765 L3.95239943,7.71311765 C5.00870538,7.71311765 5.9026289,7.33970588 6.62569547,6.58882353 L6.62569547,6.58882353 C7.34165439,5.83685882 7.70250425,4.93688235 7.70250425,3.88294118 L7.70250425,3.88294118 C7.70250425,2.83522353 7.34165439,1.95202353 6.62569547,1.2374 L6.62569547,1.2374 C5.9026289,0.526023529 5.00870538,0.172094118 3.95239943,0.172094118 L3.95239943,0.172094118 C2.89007932,0.172094118 1.97701983,0.526023529 1.21978187,1.2374 L1.21978187,1.2374 Z" id="path-1"></path>
    </defs>
    <g id="Page-1" stroke="none" stroke-width="1" fill="none" fill-rule="evenodd">
        <g id="about" transform="translate(-170.000000, -21.000000)">
            <g id="Group-28" transform="translate(170.000000, 21.000000)">
                <g id="Group-13" transform="translate(0.000000, 0.037341)">
                    <path d="M67.8790021,35.4930047 C68.0189681,34.8208635 68.2032203,34.1544047 68.2917925,33.4754988 C68.7401211,30.0503929 67.5856749,27.3044635 64.6811069,25.3343106 C63.2273194,24.3480165 61.603495,23.7318871 59.8990262,23.3411576 C58.7484072,23.0773341 57.5783789,22.8946871 56.4143647,22.6928282 C54.1462047,22.2996635 51.9174101,21.7752635 49.8329554,20.7719224 C48.6965517,20.2247929 47.6489936,19.5510282 46.8340744,18.5723106 C46.4018746,18.0527812 46.0782033,17.4783224 45.9406976,16.8105106 C45.8914908,16.5718518 45.9169143,16.3680988 46.071369,16.1602871 C47.5568676,14.1571224 49.5073704,12.8888753 52.0040687,12.5143812 C53.1582415,12.3409341 54.3266296,12.3428282 55.4928307,12.4156165 C57.1672288,12.5206047 58.7601622,12.9359576 60.2751848,13.6446282 C61.7169441,14.3189341 63.0132698,15.2118753 64.2092684,16.2501224 C65.7136296,17.55544 66.9801579,19.0520635 67.9178208,20.8095341 C68.7690984,22.4049224 69.2988916,24.0993459 69.4992727,25.8933459 C69.8721508,29.2299694 69.2455843,32.4012635 67.8822826,35.4502518 C67.8749016,35.4667576 67.8604129,35.4802871 67.8492047,35.49544 C67.859046,35.4946282 67.8688874,35.4938165 67.8790021,35.4930047" id="Fill-1" fill="#78C055"></path>
                    <path d="M39.1975892,37.6556 C39.7377705,38.2241059 40.3033754,38.7528353 40.9288484,39.2171647 C42.107898,40.0930588 43.4083244,40.6964706 44.874687,40.9151059 C46.3134391,41.1296824 47.7013442,40.9151059 49.0446898,40.3893529 C50.5796686,39.7883765 51.8981374,38.8553882 53.118466,37.7716824 C54.2122238,36.8005412 55.147153,35.6859882 56.0962975,34.5822588 C57.455772,33.0020235 58.9235014,31.5305647 60.6408187,30.3240118 C61.7214547,29.5647412 62.8676997,28.9307529 64.174687,28.6366235 C65.0210439,28.4461294 65.866034,28.4125765 66.6992691,28.7221294 C66.9023839,28.7976235 67.0327819,28.9150588 67.120534,29.1161059 C67.5292238,30.0572118 67.7758045,31.0351176 67.8608229,32.0557765 C68.00817,33.8205529 67.6005737,35.4586941 66.7574972,37.0105176 C66.0062734,38.3932235 65.1495283,39.6961059 64.0218725,40.8103882 C62.5730057,42.2423412 60.8567819,43.2600235 58.9631402,44.0008941 C57.4850227,44.5791412 55.9612521,44.9890824 54.3798003,45.1625294 C50.8754561,45.5473059 47.6379221,44.7772118 44.6661048,42.9115059 C42.529983,41.5702 40.7577181,39.8495294 39.2995567,37.8076706 C39.2642918,37.7578824 39.2314873,37.7062 39.1975892,37.6556" id="Fill-3" fill="#4FB0BB"></path>
                    <path d="M51.2492911,12.1370459 C50.7126636,12.3234812 50.0445446,12.5153282 49.4097769,12.7840224 C47.5134016,13.5863165 46.0125942,14.8331871 45.087233,16.6932106 C44.6088336,17.65434 44.3521381,18.6763518 44.2632925,19.7416576 C44.083961,21.8866106 44.51042,23.9460576 45.2004086,25.9600459 C45.6126523,27.1636224 46.0907783,28.3452812 46.5125899,29.5458812 C46.9912627,30.9082929 47.3548463,32.3029047 47.5606948,33.7329635 C47.7638095,35.1427282 47.8209441,36.5533047 47.4595475,37.9508929 C47.2624469,38.7139518 46.9431494,39.4172106 46.3920333,40.00114 C46.3619625,40.0330694 46.3280644,40.0620224 46.3010007,40.0966576 C46.0000191,40.4838694 45.5926962,40.4359753 45.1766254,40.3742812 C43.499767,40.1266929 41.9863846,39.5094812 40.667369,38.4430929 C39.8576438,37.7882694 39.2288902,36.9843518 38.665199,36.1209047 C37.7059398,34.6510694 36.9462415,33.0973518 36.5547741,31.38074 C36.2412174,30.0066929 36.1641268,28.6172224 36.2619936,27.2147635 C36.3940319,25.3201047 36.7909667,23.4844341 37.5121197,21.7223635 C38.8196537,18.5267165 41.0183775,16.1060341 44.042682,14.4137753 C46.0538732,13.2883988 48.2137783,12.5873047 50.4939667,12.2406812 C50.7875673,12.1960341 51.0822613,12.1597753 51.2492911,12.1370459" id="Fill-5" fill="#F8D331"></path>
                    <path d="M28.6357052,0.775127059 C28.0536982,0.775127059 27.5714715,0.964268235 27.1906656,1.34119765 C26.8098596,1.71812706 26.6195933,2.19409176 26.6195933,2.76909176 L26.6195933,43.0664447 C26.6195933,43.5967976 26.8098596,44.0627506 27.1906656,44.46268 C27.5714715,44.8609859 28.0536982,45.0604094 28.6357052,45.0604094 C29.2190792,45.0604094 29.6993922,44.8609859 30.0796514,44.46268 C30.460184,44.0627506 30.6526373,43.5967976 30.6526373,43.0664447 L30.6526373,2.76909176 C30.6526373,2.19409176 30.460184,1.71812706 30.0796514,1.34119765 C29.6993922,0.964268235 29.2190792,0.775127059 28.6357052,0.775127059" id="Fill-7" fill="#78C055"></path>
                    <path d="M20.0969861,0.0440788235 C18.3493246,0.0440788235 16.7049975,0.387996471 15.1585371,1.07474941 C13.6142637,1.76258471 12.2706448,2.69394941 11.1279535,3.86911412 C9.98744929,5.04319647 9.08040397,6.42779647 8.40791105,8.02453765 C7.73733173,9.61830235 7.39999178,11.3254435 7.39999178,13.1440671 L7.39999178,18.5290435 L1.95717309,18.5290435 C1.42136572,18.5290435 0.961555524,18.7195376 0.582116431,19.0951141 C0.200490368,19.4720435 0.0102240793,19.9250082 0.0102240793,20.45942 C0.0102240793,20.9886906 0.200490368,21.4454435 0.582116431,21.82102 C0.961555524,22.19822 1.42136572,22.3870906 1.95717309,22.3870906 L7.39999178,22.3870906 L7.39999178,43.2010082 C7.39999178,43.7313612 7.5795966,44.1859494 7.9390796,44.5615259 C8.2958289,44.9384553 8.74306402,45.1275965 9.28051161,45.1275965 C9.81905269,45.1275965 10.2766759,44.9384553 10.6574819,44.5615259 C11.0388346,44.1859494 11.2280074,43.7313612 11.2280074,43.2010082 L11.2280074,22.3870906 L17.4081079,22.3870906 C17.9474691,22.3870906 18.393064,22.19822 18.7520003,21.82102 C19.1095697,21.4454435 19.2905414,20.9886906 19.2905414,20.45942 C19.2905414,19.9250082 19.1095697,19.4720435 18.7520003,19.0951141 C18.393064,18.7195376 17.9474691,18.5290435 17.4081079,18.5290435 L11.2280074,18.5290435 L11.2280074,13.1440671 C11.2280074,11.8585024 11.4658402,10.6489729 11.9357652,9.51953765 C12.4065102,8.38847882 13.044285,7.40245529 13.8493629,6.56092588 C14.6566278,5.71966706 15.5964776,5.05347882 16.6702793,4.56587882 C17.7459946,4.07882 18.8884125,3.83366706 20.0969861,3.83366706 C20.6355272,3.83366706 21.0920569,3.64587882 21.4739564,3.26894941 C21.852302,2.89202 22.0450286,2.43905529 22.0450286,1.90599647 C22.0450286,1.37537294 21.852302,0.931337647 21.4739564,0.577137647 C21.0920569,0.221855294 20.6355272,0.0440788235 20.0969861,0.0440788235" id="Fill-9" fill="#78C055"></path>
                    <path d="M133.530248,0.442574118 C132.467928,0.442574118 131.554869,0.796774118 130.797904,1.50815059 C130.038206,2.22250353 129.66068,3.10597412 129.66068,4.15342118 C129.66068,5.20763294 130.038206,6.10733882 130.797904,6.85930353 C131.554869,7.61018588 132.467928,7.98386824 133.530248,7.98386824 C134.586828,7.98386824 135.480478,7.61018588 136.203544,6.85930353 C136.919503,6.10733882 137.280627,5.20763294 137.280627,4.15342118 C137.280627,3.10597412 136.919503,2.22250353 136.203544,1.50815059 C135.480478,0.796774118 134.586828,0.442574118 133.530248,0.442574118" id="Fill-11" fill="#F8D331"></path>
                </g>
                <g id="Group-16" transform="translate(129.577904, 0.307929)">
                    <mask id="mask-2" fill="white">
                        <use xlink:href="#path-1"></use>
                    </mask>
                    <g id="Clip-15"></g>
                    <polygon id="Fill-14" fill="#F8D331" mask="url(#mask-2)" points="-199.014164 76.5764706 105.164224 76.5764706 105.164224 -15.7314588 -199.014164 -15.7314588"></polygon>
                </g>
                <g id="Group-27" transform="translate(74.083569, 0.307929)" fill="#78C055">
                    <path d="M59.3895445,11.60948 C58.8056238,11.60948 58.3233972,11.7997035 57.9439581,12.1741976 C57.5631521,12.5538329 57.3728858,13.0295271 57.3728858,13.6045271 L57.3728858,42.8621506 C57.3728858,43.3935859 57.5631521,43.8595388 57.9439581,44.2567624 C58.3233972,44.6575035 58.8056238,44.8571976 59.3895445,44.8571976 C59.9699113,44.8571976 60.4504977,44.6575035 60.8334907,44.2567624 C61.2129297,43.8595388 61.4021025,43.3935859 61.4021025,42.8621506 L61.4021025,13.6045271 C61.4021025,13.0295271 61.2129297,12.5538329 60.8334907,12.1741976 C60.4504977,11.7997035 59.9699113,11.60948 59.3895445,11.60948" id="Fill-17"></path>
                    <path d="M87.6786698,31.8450694 C86.8293058,30.2042224 85.4178908,28.78634 83.4471585,27.5895282 C82.3274305,26.9246929 81.2290254,26.4032694 80.1541302,26.0274224 C79.0803285,25.6504929 78.0281231,25.3065753 76.9966939,24.9970224 C75.9682718,24.6847635 75.1041458,24.4093047 74.41115,24.1657753 C73.7162407,23.9233282 73.1580169,23.6224341 72.7315579,23.2695871 C72.3059191,22.9129518 72.0142322,22.4816341 71.8575905,21.9726576 C71.7025891,21.4623282 71.6454545,20.7847753 71.6911075,19.9445988 C71.7345735,19.0116106 71.9245664,18.2680341 72.261633,17.7133282 C72.5962392,17.1588929 73.033633,16.7170224 73.5719007,16.3844694 C74.1077081,16.0508341 74.7022902,15.8400459 75.3523667,15.7523753 C76.0016231,15.66254 76.6178016,15.6205988 77.200082,15.6205988 C78.1402052,15.66254 79.0231939,15.7945871 79.8520551,16.0178224 C80.6133936,16.2204929 81.2752251,16.4753871 81.8465707,16.7708694 C82.8030962,17.3610224 83.3307024,17.94874 83.6275834,18.4025165 L83.6278568,18.4022459 C83.6278568,18.4022459 84.5253341,19.8885871 86.2557732,19.4404929 C86.3648483,19.3980106 86.4780239,19.3476812 86.5955735,19.2870694 C88.2582166,18.4295753 87.4886769,16.7153988 87.2319814,16.2383518 C87.1792208,16.1541988 87.1332945,16.0684224 87.0734262,15.9861635 C86.447133,15.1191988 85.6297534,14.3767047 84.6218341,13.7586812 C83.6133681,13.1382224 82.471497,12.6392576 81.1945806,12.2636812 C79.9187576,11.8867518 78.6314531,11.6759635 77.3332137,11.63294 L76.8627421,11.63294 C74.1309446,11.63294 71.936048,12.3637988 70.2780523,13.8233518 C68.6227902,15.2869635 67.7510098,17.28174 67.6586103,19.8098459 C67.614871,21.4509635 67.8264602,22.7809047 68.2982987,23.8002106 C68.7676769,24.8192459 69.395337,25.6618576 70.1779984,26.3256106 C70.9628469,26.9909871 71.8575905,27.5021282 72.8660565,27.8563282 C73.8739758,28.2089047 74.8706868,28.5417282 75.8548228,28.8537165 C76.794946,29.1178106 77.7263214,29.4184341 78.6437548,29.7499047 C79.5606415,30.08354 80.4687803,30.4921282 81.3627038,30.9797282 C82.2139814,31.5125165 83.0103115,32.2109047 83.7495069,33.0751635 C84.4878823,33.9405047 84.721888,35.0128459 84.4526174,36.3011165 C84.2295466,37.4089047 83.6371514,38.4065635 82.6729715,39.2924694 C81.711252,40.1797282 80.6483851,40.7114341 79.4830041,40.88894 C78.4097492,41.0209871 77.400463,40.9322341 76.4595197,40.6224106 C75.5193965,40.3115047 74.7022902,39.9232106 74.0071075,39.4575282 C73.313565,38.9929282 72.5642548,38.3394576 71.7564432,37.4965753 C71.4007874,37.0536224 70.951912,36.80874 70.4147378,36.7657165 C69.8759234,36.7199871 69.3844021,36.8761165 68.9355268,37.2313988 C68.4902052,37.5869518 68.2433511,38.0409988 68.1971514,38.5943518 C68.153412,39.1477047 68.3086868,39.6250224 68.6676231,40.0235988 C68.7138228,40.0693282 69.0254659,40.3888929 69.6069262,40.9893282 C70.1908469,41.5857047 70.9737817,42.2077871 71.9584644,42.8512459 C72.9439673,43.4933518 74.1309446,44.0366929 75.5193965,44.4793753 C76.9089418,44.9223282 78.4316188,45.0313753 80.0879744,44.8119282 C81.0734772,44.6787988 82.0267222,44.38034 82.9430622,43.91574 C83.8615891,43.4476224 84.6885367,42.8712694 85.4285523,42.18614 C86.1682945,41.4969518 86.7954078,40.7214459 87.3093455,39.85854 C87.82465,38.9929282 88.172378,38.0729282 88.350616,37.0979988 C88.7519248,35.2360812 88.5299475,33.4837518 87.6786698,31.8450694" id="Fill-19"></path>
                    <path d="M51.6849626,14.4041694 C51.6412232,14.35844 51.3719527,14.1592871 50.8796113,13.8037341 C50.3861765,13.4498047 49.6819725,13.0728753 48.7628989,12.6742988 C47.8446453,12.2757224 46.7358521,11.9648165 45.4378861,11.7426635 C44.1380065,11.5232165 42.6587955,11.5232165 41.0057204,11.7426635 C39.2110391,11.9648165 37.6910958,12.3303812 36.4357756,12.84044 C35.183736,13.3483341 34.1061071,13.9141341 33.2124569,14.5362165 L33.2124569,13.6045812 C33.2124569,13.0295812 33.0200037,12.5538871 32.6424782,12.1742518 C32.2583918,11.7997576 31.777532,11.6095341 31.1968918,11.6095341 C30.6146113,11.6095341 30.1340249,11.7997576 29.7529456,12.1742518 C29.3721397,12.5538871 29.1824201,13.0295812 29.1824201,13.6045812 L29.1824201,39.81484 C29.0722516,40.5343341 28.5831907,42.2133341 26.375719,42.2046753 C23.548515,42.1957459 23.548515,39.4936518 23.548515,39.4936518 L23.548515,13.6045812 C23.548515,13.0728753 23.3593422,12.6069224 22.9785363,12.2083459 C22.5971836,11.8086871 22.1152303,11.6095341 21.5348635,11.6095341 C20.9976892,11.6095341 20.5269442,11.8086871 20.1250887,12.2083459 C19.7226864,12.6069224 19.5212119,13.0728753 19.5212119,13.6045812 L19.5212119,29.8869576 C19.4452147,32.7194753 18.8820703,34.2428871 18.8675816,34.2821224 C18.7970518,34.4322988 18.7276156,34.5811224 18.6466977,34.7483459 C18.1978224,35.6786282 17.5939456,36.6329929 16.8331538,37.6100871 C16.0701751,38.5863694 15.1650433,39.4059812 14.1131113,40.0710871 C13.0584456,40.7361929 11.8397572,41.0013694 10.4504853,40.8666165 C8.97127422,40.7361929 7.81682805,40.27024 6.98960708,39.4720047 C6.15965241,38.6751224 5.54593428,37.8325106 5.14353201,36.9438988 C4.73757592,36.0569106 4.49263541,35.2483929 4.40296969,34.5175341 C4.31248385,33.7850518 4.26819773,33.3764635 4.26819773,33.2850047 L4.26819773,13.6045812 C4.26819773,13.0728753 4.0773847,12.6069224 3.6971255,12.2083459 C3.31631955,11.8086871 2.83627989,11.6095341 2.25399943,11.6095341 C1.7160051,11.6095341 1.24553343,11.8086871 0.843677904,12.2083459 C0.438541926,12.6069224 0.237887535,13.0728753 0.237887535,13.6045812 L0.237887535,33.3523812 C0.237887535,34.2393694 0.39480255,35.3044047 0.708359207,36.5455929 C1.02054901,37.7878635 1.5476085,38.9973929 2.28598385,40.1701224 C3.02654618,41.3452871 4.02325722,42.3759576 5.276117,43.2591576 C6.53007025,44.1464165 8.09703343,44.6805576 9.98028697,44.8569812 C10.202811,44.8569812 10.3933507,44.8659106 10.5510858,44.8902635 C10.7060873,44.9102871 10.8958068,44.9219224 11.1221581,44.9219224 C12.9589385,44.9219224 14.5707346,44.4900635 15.9586397,43.6247224 C17.3473649,42.7628988 18.5351623,41.7541459 19.5212119,40.6041459 L19.5865476,40.6485224 C19.8506241,42.3783929 21.0649385,45.4357694 26.375719,45.4357694 C33.2458082,45.4357694 33.2458082,39.4936518 33.2458082,39.4936518 L33.2124569,20.9846047 C33.2572898,20.85364 33.3808535,20.5440871 33.5817813,20.0554047 C33.7829824,19.5680753 34.1856581,19.0363694 34.7919952,18.4575812 C35.3947785,17.8839341 36.235668,17.3281459 37.3102898,16.79644 C38.3835448,16.2644635 39.7952331,15.8888871 41.5426212,15.6656518 C42.7058153,15.5336047 43.7468125,15.5336047 44.6647926,15.6656518 C45.5830462,15.7987812 46.343838,15.9892753 46.9499017,16.2303694 C47.5537785,16.4752518 48.0242501,16.7190518 48.3602232,16.9614988 C48.6961963,17.2077341 48.8864626,17.3281459 48.9321156,17.3281459 C49.3339711,17.7291576 49.8153776,17.9169459 50.3744215,17.8931341 C50.9348323,17.8712165 51.3938224,17.6620518 51.7516652,17.2623929 C52.1119683,16.8624635 52.2912997,16.3864988 52.2912997,15.8331459 C52.2912997,15.27844 52.0900986,14.8024753 51.6849626,14.4041694" id="Fill-21"></path>
                    <path d="M118.809597,23.9123965 C118.741801,22.1395024 118.408835,20.4199141 117.801678,18.7585024 C117.198621,17.0970906 116.212572,15.6223847 114.845716,14.33682 C113.478314,13.0499024 111.521797,12.2313729 108.966871,11.8760906 C107.847416,11.7426906 106.773888,11.7757024 105.745465,11.9748553 C104.711576,12.1742788 103.74849,12.4862671 102.854839,12.9064906 C101.958456,13.3277965 101.107725,13.8278435 100.3021,14.4041965 C99.496202,14.9789259 98.7794229,15.5552788 98.1517629,16.1313612 L98.1517629,2.16846706 C98.1517629,1.59211412 97.9598564,1.11506706 97.5806907,0.73922 C97.2009782,0.362290588 96.7187516,0.172067059 96.1367445,0.172067059 C95.5528238,0.172067059 95.0733309,0.362290588 94.6922516,0.73922 C94.311719,1.11506706 94.1206326,1.59211412 94.1206326,2.16846706 L94.1206326,42.4647376 C94.1206326,42.9975259 94.311719,43.4607729 94.6922516,43.8593494 C95.0733309,44.2568435 95.5528238,44.4559965 96.1367445,44.4559965 C96.7187516,44.4559965 97.2009782,44.2568435 97.5806907,43.8593494 C97.9598564,43.4607729 98.1517629,42.9975259 98.1517629,42.4647376 L98.1517629,25.3519259 C98.0462416,22.5919259 99.0711099,21.0652671 99.0790377,21.0536318 C99.1892062,20.9159024 99.3012884,20.7754671 99.4275858,20.6190671 C100.056339,19.8449141 100.827793,19.0821259 101.745773,18.3258318 C102.663206,17.5730553 103.694635,16.9182318 104.835686,16.3648788 C105.978104,15.8104435 107.15442,15.6223847 108.364361,15.7988082 C109.6164,15.9776671 110.669152,16.3305141 111.521797,16.8624906 C112.371708,17.3955494 113.044201,18.15942 113.535448,19.1570788 C114.027243,20.1544671 114.375244,21.4173024 114.575899,22.94802 C114.779834,24.4771141 114.856651,26.3276671 114.813185,28.4991376 C114.766439,30.5829376 114.734181,32.5208906 114.711218,34.3167847 C114.688254,36.1113259 114.666385,37.6547612 114.644515,38.9403259 C114.622099,40.2272435 114.611164,41.6232082 114.611164,43.1284906 C114.611164,43.6601965 114.801703,44.1258788 115.181689,44.5244553 C115.562495,44.9219494 116.043355,45.1235376 116.626182,45.1235376 C117.16281,45.1235376 117.634375,44.9219494 118.037871,44.5244553 C118.441093,44.1258788 118.642567,43.6601965 118.642567,43.1284906 C118.642567,41.6662318 118.653229,40.2802788 118.675099,38.9733376 C118.694781,37.6661259 118.721298,36.1226906 118.741801,34.3497965 C118.765584,32.5769024 118.799482,30.6513965 118.842402,28.5662435 C118.886414,27.2349494 118.878213,25.6855612 118.809597,23.9123965" id="Fill-23"></path>
                    <path d="M33.6259307,19.9562341 C33.6259307,19.9562341 33.2120469,20.8437635 33.2142339,21.9945753 L31.7396701,22.1839871 L32.2730171,18.7185635 L33.6259307,19.9562341 Z" id="Fill-25"></path>
                </g>
            </g>
        </g>
    </g>
</svg>