<?xml version="1.0" encoding="UTF-8"?>
<svg width="40px" height="40px" viewBox="0 0 40 40" version="1.1" xmlns="http://www.w3.org/2000/svg" xmlns:xlink="http://www.w3.org/1999/xlink">
    <!-- Generator: Sketch 53.2 (72643) - https://sketchapp.com -->
    <title>Group 31</title>
    <desc>Created with Sketch.</desc>
    <g id="Page-1" stroke="none" stroke-width="1" fill="none" fill-rule="evenodd">
        <g id="flourish" transform="translate(-315.000000, -5036.000000)">
            <g id="Group-31" transform="translate(315.000000, 5036.000000)">
                <circle id="Oval-Copy-8" fill="#4FB0BB" fill-rule="nonzero" cx="19.8576991" cy="19.8576991" r="19.8576991"></circle>
                <path d="M15.9230769,28 L12.3566434,28 L12.3566434,17.3006993 L15.9230769,17.3006993 L15.9230769,28 Z M14.1398601,15.2797203 C12.951049,15.2797203 12,14.3286713 12,13.1398601 C12,11.951049 12.951049,11 14.1398601,11 C15.3286713,11 16.2797203,11.951049 16.2797203,13.1398601 C16.2797203,14.3286713 15.3286713,15.2797203 14.1398601,15.2797203 Z M29,28 L25.4335664,28 L25.4335664,21.6993007 C25.4335664,20.7482984 24.6013986,19.9160839 23.6503497,19.9160839 C22.6993007,19.9160839 21.8671329,20.7482984 21.8671329,21.6993007 L21.8671329,28 L18.3006993,28 L18.3006993,17.3006993 L21.8671329,17.3006993 L21.8671329,18.7272727 C22.4615385,17.7762238 23.7692308,17.0629371 24.8391608,17.0629371 C27.0979021,17.0629371 29,18.965035 29,21.2237762 L29,28 Z" id="Shape" fill="#FFFFFF" fill-rule="nonzero"></path>
                <g id="linkedin-logo" transform="translate(12.000000, 11.000000)"></g>
            </g>
        </g>
    </g>
</svg>