<?xml version="1.0" encoding="UTF-8"?>
<svg width="40px" height="40px" viewBox="0 0 40 40" version="1.1" xmlns="http://www.w3.org/2000/svg" xmlns:xlink="http://www.w3.org/1999/xlink">
    <!-- Generator: Sketch 53.2 (72643) - https://sketchapp.com -->
    <title>Group 32</title>
    <desc>Created with Sketch.</desc>
    <g id="Page-1" stroke="none" stroke-width="1" fill="none" fill-rule="evenodd">
        <g id="flourish" transform="translate(-260.000000, -5036.000000)" fill-rule="nonzero">
            <g id="Group-32" transform="translate(260.000000, 5036.000000)">
                <circle id="Oval" fill="#4FB0BB" cx="19.8576991" cy="19.8576991" r="19.8576991"></circle>
                <path d="M32.1355752,13.2258407 C31.2846018,13.6031858 30.3692035,13.8584071 29.4092035,13.9723894 C30.3893805,13.3851327 31.1415929,12.4559292 31.4966372,11.3469027 C30.579469,11.8909735 29.5631858,12.2856637 28.4824779,12.4984071 C27.6166372,11.5762832 26.3830088,11 25.0169912,11 C22.3961062,11 20.2704425,13.1256637 20.2704425,15.7465487 C20.2704425,16.1185841 20.3125664,16.480708 20.3939823,16.8283186 C16.4492035,16.6304425 12.9515044,14.740885 10.6102655,11.8683186 C10.2017699,12.5692035 9.96743363,13.3851327 9.96743363,14.2548673 C9.96743363,15.9012389 10.8060177,17.3546903 12.0789381,18.2056637 C11.3012389,18.1812389 10.5688496,17.9677876 9.92920354,17.6113274 C9.92884956,17.6315044 9.92884956,17.6516814 9.92884956,17.6715044 C9.92884956,19.9713274 11.5656637,21.8895575 13.7366372,22.3253097 C13.3387611,22.4343363 12.9185841,22.4920354 12.4863717,22.4920354 C12.179823,22.4920354 11.8828319,22.4626549 11.5932743,22.4074336 C12.1971681,24.2927434 13.9497345,25.6651327 16.0272566,25.7037168 C14.4024779,26.9769912 12.3561062,27.7355752 10.1316814,27.7355752 C9.74938053,27.7355752 9.37061947,27.7132743 9,27.6690265 C11.099469,29.0162832 13.5950442,29.8017699 16.2753982,29.8017699 C25.0060177,29.8017699 29.780531,22.5692035 29.780531,16.2962832 C29.780531,16.0906195 29.7759292,15.8856637 29.7667257,15.6824779 C30.6948673,15.0134513 31.499469,14.1776991 32.1355752,13.2258407 L32.1355752,13.2258407 Z" id="Shape" fill="#FFFFFF"></path>
            </g>
        </g>
    </g>
</svg>